G04*
G04 #@! TF.GenerationSoftware,Altium Limited,Altium Designer,24.6.1 (21)*
G04*
G04 Layer_Color=12632256*
%FSLAX44Y44*%
%MOMM*%
G71*
G04*
G04 #@! TF.SameCoordinates,4BB363C3-779D-4DD9-87B2-7F346795113B*
G04*
G04*
G04 #@! TF.FilePolarity,Positive*
G04*
G01*
G75*
%ADD19R,1.7530X1.7530*%
%ADD20C,1.7530*%
%ADD21C,2.9210*%
%ADD23C,2.5000*%
%ADD24C,2.7000*%
%ADD26C,1.8800*%
%ADD27R,1.8800X1.8800*%
G04:AMPARAMS|DCode=32|XSize=1.905mm|YSize=1.524mm|CornerRadius=0mm|HoleSize=0mm|Usage=FLASHONLY|Rotation=0.000|XOffset=0mm|YOffset=0mm|HoleType=Round|Shape=Octagon|*
%AMOCTAGOND32*
4,1,8,0.9525,-0.3810,0.9525,0.3810,0.5715,0.7620,-0.5715,0.7620,-0.9525,0.3810,-0.9525,-0.3810,-0.5715,-0.7620,0.5715,-0.7620,0.9525,-0.3810,0.0*
%
%ADD32OCTAGOND32*%

%ADD33C,0.8000*%
%ADD34O,1.1500X1.8000*%
%ADD35O,1.4500X2.0000*%
D19*
X118110Y504190D02*
D03*
D20*
Y478790D02*
D03*
Y453390D02*
D03*
Y427990D02*
D03*
Y402590D02*
D03*
Y377190D02*
D03*
Y351790D02*
D03*
Y326390D02*
D03*
Y300990D02*
D03*
Y275590D02*
D03*
Y250190D02*
D03*
Y224790D02*
D03*
Y199390D02*
D03*
Y173990D02*
D03*
Y148590D02*
D03*
X346710D02*
D03*
Y173990D02*
D03*
Y199390D02*
D03*
Y224790D02*
D03*
Y250190D02*
D03*
Y275590D02*
D03*
Y300990D02*
D03*
Y326390D02*
D03*
Y351790D02*
D03*
Y377190D02*
D03*
Y402590D02*
D03*
Y427990D02*
D03*
Y453390D02*
D03*
Y478790D02*
D03*
Y504190D02*
D03*
D21*
X128270Y544830D02*
D03*
X336550D02*
D03*
Y107950D02*
D03*
X128270D02*
D03*
D23*
X40640Y40640D02*
D03*
X1127760Y872490D02*
D03*
X1139190Y358140D02*
D03*
X768350Y93980D02*
D03*
X1353820Y1210310D02*
D03*
Y40640D02*
D03*
X40640Y1210310D02*
D03*
X769620Y325120D02*
D03*
D24*
X946150Y1184910D02*
D03*
X759460D02*
D03*
X191770Y948690D02*
D03*
Y1158497D02*
D03*
X234950Y858590D02*
D03*
Y656590D02*
D03*
X102650Y858790D02*
D03*
X102850Y656690D02*
D03*
X946150Y958850D02*
D03*
X759460D02*
D03*
D26*
X671830Y787400D02*
D03*
Y762000D02*
D03*
Y736600D02*
D03*
Y711200D02*
D03*
Y685800D02*
D03*
Y660400D02*
D03*
X570230D02*
D03*
Y685800D02*
D03*
Y711200D02*
D03*
Y736600D02*
D03*
Y762000D02*
D03*
D27*
Y787400D02*
D03*
D32*
X393700Y805180D02*
D03*
Y779780D02*
D03*
Y754380D02*
D03*
Y728980D02*
D03*
X816610Y694690D02*
D03*
Y669290D02*
D03*
Y643890D02*
D03*
Y618490D02*
D03*
Y593090D02*
D03*
X398780Y1096010D02*
D03*
Y1070610D02*
D03*
Y1045210D02*
D03*
Y1019810D02*
D03*
X593090Y1038860D02*
D03*
Y1064260D02*
D03*
Y1089660D02*
D03*
Y1115060D02*
D03*
X527050Y406400D02*
D03*
Y381000D02*
D03*
Y355600D02*
D03*
Y330200D02*
D03*
Y304800D02*
D03*
Y279400D02*
D03*
D33*
X581260Y61680D02*
D03*
X531260D02*
D03*
D34*
X595010Y34180D02*
D03*
X517510D02*
D03*
D35*
X593510Y72180D02*
D03*
X519010D02*
D03*
M02*
