M48
;Layer_Color=9474304
;FILE_FORMAT=4:2
METRIC,LZ
;TYPE=PLATED
T03F00S00C0.89
T04F00S00C1.00
T05F00S00C1.02
;TYPE=NON_PLATED
T06F00S00C0.80
T07F00S00C2.50
T08F00S00C2.70
T09F00S00C2.92
%
T03
X003467Y001486
Y00174
Y001994
Y002248
Y002502
Y002756
Y00301
Y003264
Y003518
Y003772
Y004026
Y00428
Y004534
Y004788
Y005042
X001181
Y004788
Y004534
Y00428
Y004026
Y003772
Y003518
Y003264
Y00301
Y002756
Y002502
Y002248
Y001994
Y00174
Y001486
T04
X005271Y002794
Y003048
Y003302
Y003556
Y00381
Y004064
X003937Y00729
Y007544
Y007798
Y008052
X008166Y006947
Y006693
Y006439
Y006185
Y005931
X005931Y010389
Y010643
Y010897
Y011151
X003988Y01096
Y010706
Y010452
Y010198
T05
X005702Y006604
Y006858
Y007112
Y007366
Y00762
Y007874
X006718
Y00762
Y007366
Y007112
Y006858
Y006604
T06
X005313Y000617
X005813
T07
X007683Y00094
X011392Y003581
X007696Y003251
X011278Y008725
T08
X001028Y006567
X001027Y008588
X00235Y008586
Y006566
X009461Y009589
Y011849
X007595
Y009589
X001918Y009487
Y011585
T09
X000406Y000406
X001283Y00108
X003365
X013538Y000406
X001283Y005448
X003365
X013538Y012103
X000406
M30
