G04*
G04 #@! TF.GenerationSoftware,Altium Limited,Altium Designer,24.6.1 (21)*
G04*
G04 Layer_Color=16711935*
%FSLAX44Y44*%
%MOMM*%
G71*
G04*
G04 #@! TF.SameCoordinates,4BB363C3-779D-4DD9-87B2-7F346795113B*
G04*
G04*
G04 #@! TF.FilePolarity,Positive*
G04*
G01*
G75*
%ADD11C,0.2540*%
G36*
X-11194Y148804D02*
X-16863D01*
X-16910D01*
X-17002D01*
X-17164D01*
X-17349D01*
X-17581D01*
X-17812Y148781D01*
X-18043D01*
X-18275Y148758D01*
X-18298D01*
X-18367D01*
X-18483Y148735D01*
X-18599D01*
X-18900Y148666D01*
X-19200Y148573D01*
X-19224D01*
X-19270Y148550D01*
X-19409Y148457D01*
X-19571Y148318D01*
X-19733Y148110D01*
Y148087D01*
X-19756Y148041D01*
X-19802Y147971D01*
X-19825Y147879D01*
X-19871Y147740D01*
X-19895Y147601D01*
X-19918Y147416D01*
Y147069D01*
X-19895Y146953D01*
X-19848Y146722D01*
X-19733Y146421D01*
Y146398D01*
X-19710Y146351D01*
X-19663Y146282D01*
X-19594Y146166D01*
X-19432Y145889D01*
X-19224Y145565D01*
X-11194D01*
Y142024D01*
X-16863D01*
X-16910D01*
X-17002D01*
X-17141D01*
X-17349D01*
X-17557D01*
X-17789Y142001D01*
X-18252Y141978D01*
X-18275D01*
X-18344D01*
X-18460Y141955D01*
X-18599Y141932D01*
X-18900Y141886D01*
X-19062Y141839D01*
X-19200Y141793D01*
X-19224D01*
X-19270Y141770D01*
X-19409Y141677D01*
X-19571Y141515D01*
X-19733Y141307D01*
Y141284D01*
X-19756Y141261D01*
X-19802Y141191D01*
X-19825Y141076D01*
X-19871Y140960D01*
X-19895Y140821D01*
X-19918Y140636D01*
Y140266D01*
X-19895Y140150D01*
X-19825Y139873D01*
X-19710Y139572D01*
Y139549D01*
X-19663Y139502D01*
X-19640Y139433D01*
X-19571Y139317D01*
X-19409Y139086D01*
X-19224Y138785D01*
X-11194D01*
Y135245D01*
X-22556D01*
Y138785D01*
X-21283D01*
X-21306Y138831D01*
X-21399Y138924D01*
X-21537Y139086D01*
X-21700Y139317D01*
X-21885Y139549D01*
X-22093Y139826D01*
X-22278Y140127D01*
X-22440Y140405D01*
X-22463Y140451D01*
X-22509Y140543D01*
X-22579Y140705D01*
X-22648Y140914D01*
X-22718Y141168D01*
X-22787Y141469D01*
X-22833Y141793D01*
X-22856Y142140D01*
Y142325D01*
X-22833Y142510D01*
X-22787Y142765D01*
X-22741Y143043D01*
X-22648Y143343D01*
X-22509Y143667D01*
X-22347Y143968D01*
X-22324Y144014D01*
X-22255Y144107D01*
X-22139Y144246D01*
X-21977Y144408D01*
X-21769Y144616D01*
X-21514Y144801D01*
X-21214Y145009D01*
X-20866Y145171D01*
Y145195D01*
X-20913Y145218D01*
X-21028Y145357D01*
X-21190Y145542D01*
X-21399Y145796D01*
X-21630Y146097D01*
X-21885Y146421D01*
X-22116Y146745D01*
X-22324Y147092D01*
X-22347Y147138D01*
X-22417Y147254D01*
X-22486Y147416D01*
X-22602Y147670D01*
X-22694Y147925D01*
X-22764Y148249D01*
X-22833Y148573D01*
X-22856Y148920D01*
Y149059D01*
X-22833Y149198D01*
Y149383D01*
X-22787Y149614D01*
X-22741Y149846D01*
X-22694Y150100D01*
X-22602Y150331D01*
Y150355D01*
X-22556Y150447D01*
X-22486Y150563D01*
X-22417Y150702D01*
X-22301Y150864D01*
X-22162Y151049D01*
X-22023Y151234D01*
X-21838Y151396D01*
X-21815Y151419D01*
X-21746Y151465D01*
X-21630Y151558D01*
X-21468Y151650D01*
X-21283Y151766D01*
X-21052Y151882D01*
X-20797Y151997D01*
X-20519Y152090D01*
X-20496Y152113D01*
X-20380Y152136D01*
X-20219Y152183D01*
X-20010Y152229D01*
X-19710Y152275D01*
X-19385Y152298D01*
X-19015Y152345D01*
X-18576D01*
X-11194D01*
Y148804D01*
D02*
G37*
G36*
Y129066D02*
X-16863D01*
X-16910D01*
X-17002D01*
X-17164D01*
X-17349D01*
X-17581D01*
X-17812Y129043D01*
X-18043D01*
X-18275Y129020D01*
X-18298D01*
X-18367D01*
X-18483Y128997D01*
X-18599D01*
X-18900Y128928D01*
X-19200Y128835D01*
X-19224D01*
X-19270Y128812D01*
X-19409Y128719D01*
X-19571Y128581D01*
X-19733Y128372D01*
Y128349D01*
X-19756Y128303D01*
X-19802Y128233D01*
X-19825Y128141D01*
X-19871Y128002D01*
X-19895Y127863D01*
X-19918Y127678D01*
Y127331D01*
X-19895Y127215D01*
X-19848Y126984D01*
X-19733Y126683D01*
Y126660D01*
X-19710Y126614D01*
X-19663Y126544D01*
X-19594Y126428D01*
X-19432Y126151D01*
X-19224Y125827D01*
X-11194D01*
Y122287D01*
X-16863D01*
X-16910D01*
X-17002D01*
X-17141D01*
X-17349D01*
X-17557D01*
X-17789Y122263D01*
X-18252Y122240D01*
X-18275D01*
X-18344D01*
X-18460Y122217D01*
X-18599Y122194D01*
X-18900Y122148D01*
X-19062Y122101D01*
X-19200Y122055D01*
X-19224D01*
X-19270Y122032D01*
X-19409Y121939D01*
X-19571Y121777D01*
X-19733Y121569D01*
Y121546D01*
X-19756Y121523D01*
X-19802Y121454D01*
X-19825Y121338D01*
X-19871Y121222D01*
X-19895Y121083D01*
X-19918Y120898D01*
Y120528D01*
X-19895Y120412D01*
X-19825Y120135D01*
X-19710Y119834D01*
Y119811D01*
X-19663Y119764D01*
X-19640Y119695D01*
X-19571Y119579D01*
X-19409Y119348D01*
X-19224Y119047D01*
X-11194D01*
Y115507D01*
X-22556D01*
Y119047D01*
X-21283D01*
X-21306Y119093D01*
X-21399Y119186D01*
X-21537Y119348D01*
X-21700Y119579D01*
X-21885Y119811D01*
X-22093Y120088D01*
X-22278Y120389D01*
X-22440Y120667D01*
X-22463Y120713D01*
X-22509Y120806D01*
X-22579Y120968D01*
X-22648Y121176D01*
X-22718Y121430D01*
X-22787Y121731D01*
X-22833Y122055D01*
X-22856Y122402D01*
Y122587D01*
X-22833Y122773D01*
X-22787Y123027D01*
X-22741Y123305D01*
X-22648Y123605D01*
X-22509Y123929D01*
X-22347Y124230D01*
X-22324Y124277D01*
X-22255Y124369D01*
X-22139Y124508D01*
X-21977Y124670D01*
X-21769Y124878D01*
X-21514Y125063D01*
X-21214Y125272D01*
X-20866Y125434D01*
Y125457D01*
X-20913Y125480D01*
X-21028Y125619D01*
X-21190Y125804D01*
X-21399Y126058D01*
X-21630Y126359D01*
X-21885Y126683D01*
X-22116Y127007D01*
X-22324Y127354D01*
X-22347Y127400D01*
X-22417Y127516D01*
X-22486Y127678D01*
X-22602Y127933D01*
X-22694Y128187D01*
X-22764Y128511D01*
X-22833Y128835D01*
X-22856Y129182D01*
Y129321D01*
X-22833Y129460D01*
Y129645D01*
X-22787Y129876D01*
X-22741Y130108D01*
X-22694Y130362D01*
X-22602Y130594D01*
Y130617D01*
X-22556Y130709D01*
X-22486Y130825D01*
X-22417Y130964D01*
X-22301Y131126D01*
X-22162Y131311D01*
X-22023Y131496D01*
X-21838Y131658D01*
X-21815Y131681D01*
X-21746Y131727D01*
X-21630Y131820D01*
X-21468Y131912D01*
X-21283Y132028D01*
X-21052Y132144D01*
X-20797Y132260D01*
X-20519Y132352D01*
X-20496Y132375D01*
X-20380Y132399D01*
X-20219Y132445D01*
X-20010Y132491D01*
X-19710Y132537D01*
X-19385Y132560D01*
X-19015Y132607D01*
X-18576D01*
X-11194D01*
Y129066D01*
D02*
G37*
G36*
X-15915Y113447D02*
X-15706Y113424D01*
X-15475Y113401D01*
X-15220Y113355D01*
X-14920Y113285D01*
X-14318Y113100D01*
X-13971Y112985D01*
X-13647Y112823D01*
X-13323Y112661D01*
X-12999Y112452D01*
X-12698Y112221D01*
X-12397Y111943D01*
X-12374Y111920D01*
X-12328Y111874D01*
X-12259Y111781D01*
X-12166Y111666D01*
X-12050Y111527D01*
X-11911Y111342D01*
X-11773Y111110D01*
X-11634Y110856D01*
X-11495Y110578D01*
X-11356Y110277D01*
X-11217Y109930D01*
X-11102Y109583D01*
X-11009Y109166D01*
X-10940Y108750D01*
X-10893Y108310D01*
X-10870Y107824D01*
Y107593D01*
X-10893Y107362D01*
X-10917Y107038D01*
X-10963Y106667D01*
X-11032Y106274D01*
X-11125Y105858D01*
X-11241Y105464D01*
X-11264Y105418D01*
X-11310Y105302D01*
X-11402Y105094D01*
X-11518Y104863D01*
X-11680Y104585D01*
X-11865Y104307D01*
X-12097Y104006D01*
X-12351Y103729D01*
X-12397Y103682D01*
X-12513Y103590D01*
X-12698Y103428D01*
X-12953Y103243D01*
X-13277Y103035D01*
X-13670Y102803D01*
X-14110Y102595D01*
X-14596Y102410D01*
X-14619D01*
X-14665Y102387D01*
X-14734Y102364D01*
X-14850Y102340D01*
X-14966Y102317D01*
X-15128Y102271D01*
X-15313Y102225D01*
X-15521Y102201D01*
X-16007Y102109D01*
X-16562Y102040D01*
X-17187Y101993D01*
X-17881Y101970D01*
X-17905D01*
X-17974D01*
X-18067D01*
X-18229D01*
X-18391Y101993D01*
X-18599D01*
X-18830Y102016D01*
X-19062D01*
X-19617Y102063D01*
X-20195Y102155D01*
X-20820Y102248D01*
X-21399Y102387D01*
X-21422D01*
X-21468Y102410D01*
X-21561Y102433D01*
X-21653Y102479D01*
X-21792Y102502D01*
X-21954Y102572D01*
X-22324Y102711D01*
X-22741Y102919D01*
X-23203Y103150D01*
X-23666Y103428D01*
X-24129Y103775D01*
X-24152D01*
X-24175Y103821D01*
X-24314Y103937D01*
X-24523Y104145D01*
X-24777Y104423D01*
X-25055Y104747D01*
X-25356Y105163D01*
X-25633Y105626D01*
X-25888Y106158D01*
Y106181D01*
X-25911Y106228D01*
X-25957Y106320D01*
X-25980Y106436D01*
X-26050Y106575D01*
X-26096Y106737D01*
X-26142Y106945D01*
X-26212Y107177D01*
X-26281Y107408D01*
X-26327Y107686D01*
X-26443Y108287D01*
X-26512Y108958D01*
X-26536Y109699D01*
Y109976D01*
X-26512Y110162D01*
Y110393D01*
X-26489Y110647D01*
X-26420Y111180D01*
Y111203D01*
X-26397Y111295D01*
Y111434D01*
X-26374Y111596D01*
X-26327Y111920D01*
X-26304Y112082D01*
X-26281Y112198D01*
X-23319D01*
Y111897D01*
X-23342Y111874D01*
X-23365Y111804D01*
X-23389Y111712D01*
X-23435Y111573D01*
X-23481Y111434D01*
X-23551Y111249D01*
X-23597Y111041D01*
Y111018D01*
X-23620Y110925D01*
X-23666Y110809D01*
X-23689Y110647D01*
X-23736Y110439D01*
X-23759Y110208D01*
X-23782Y109930D01*
Y109490D01*
X-23759Y109375D01*
Y109213D01*
X-23736Y109051D01*
X-23666Y108657D01*
X-23551Y108218D01*
X-23389Y107755D01*
X-23157Y107315D01*
X-22833Y106922D01*
X-22787Y106876D01*
X-22671Y106760D01*
X-22440Y106621D01*
X-22162Y106413D01*
X-21769Y106228D01*
X-21329Y106019D01*
X-20797Y105858D01*
X-20172Y105742D01*
X-20195Y105765D01*
X-20242Y105881D01*
X-20334Y106019D01*
X-20450Y106205D01*
X-20566Y106436D01*
X-20681Y106691D01*
X-20913Y107246D01*
X-20936Y107292D01*
X-20959Y107385D01*
X-21005Y107547D01*
X-21075Y107755D01*
X-21121Y108010D01*
X-21167Y108310D01*
X-21190Y108634D01*
X-21214Y108981D01*
Y109282D01*
X-21190Y109467D01*
X-21167Y109699D01*
X-21121Y109953D01*
X-20982Y110485D01*
Y110509D01*
X-20936Y110601D01*
X-20890Y110740D01*
X-20820Y110925D01*
X-20728Y111110D01*
X-20635Y111319D01*
X-20357Y111758D01*
X-20334Y111804D01*
X-20242Y111897D01*
X-20126Y112036D01*
X-19941Y112221D01*
X-19710Y112406D01*
X-19432Y112614D01*
X-19131Y112823D01*
X-18784Y113008D01*
X-18738Y113031D01*
X-18599Y113077D01*
X-18391Y113146D01*
X-18113Y113239D01*
X-17743Y113332D01*
X-17326Y113401D01*
X-16840Y113447D01*
X-16308Y113470D01*
X-16285D01*
X-16192D01*
X-16077D01*
X-15915Y113447D01*
D02*
G37*
G36*
X-18020Y100165D02*
X-17812D01*
X-17557Y100142D01*
X-17025Y100119D01*
X-16447Y100050D01*
X-15868Y99980D01*
X-15290Y99865D01*
X-15267D01*
X-15220Y99841D01*
X-15151D01*
X-15058Y99795D01*
X-14781Y99726D01*
X-14434Y99610D01*
X-14040Y99471D01*
X-13647Y99309D01*
X-13231Y99101D01*
X-12837Y98869D01*
X-12791Y98846D01*
X-12675Y98754D01*
X-12513Y98592D01*
X-12282Y98384D01*
X-12050Y98129D01*
X-11796Y97805D01*
X-11564Y97458D01*
X-11356Y97065D01*
Y97042D01*
X-11333Y97018D01*
X-11310Y96949D01*
X-11287Y96880D01*
X-11194Y96648D01*
X-11125Y96324D01*
X-11032Y95931D01*
X-10940Y95468D01*
X-10893Y94959D01*
X-10870Y94380D01*
Y94126D01*
X-10893Y93987D01*
Y93825D01*
X-10940Y93455D01*
X-10986Y93015D01*
X-11078Y92576D01*
X-11194Y92113D01*
X-11356Y91673D01*
Y91650D01*
X-11379Y91627D01*
X-11449Y91488D01*
X-11564Y91303D01*
X-11726Y91048D01*
X-11958Y90747D01*
X-12212Y90447D01*
X-12513Y90146D01*
X-12860Y89868D01*
X-12883D01*
X-12907Y89845D01*
X-13045Y89753D01*
X-13254Y89637D01*
X-13531Y89498D01*
X-13901Y89336D01*
X-14318Y89174D01*
X-14781Y89012D01*
X-15313Y88873D01*
X-15336D01*
X-15382Y88850D01*
X-15452D01*
X-15568Y88827D01*
X-15706Y88804D01*
X-15868Y88781D01*
X-16077Y88758D01*
X-16285Y88734D01*
X-16794Y88665D01*
X-17372Y88619D01*
X-18020Y88596D01*
X-18714Y88572D01*
X-18738D01*
X-18807D01*
X-18900D01*
X-19062D01*
X-19224D01*
X-19432Y88596D01*
X-19663D01*
X-19895Y88619D01*
X-20427Y88642D01*
X-21005Y88711D01*
X-21584Y88781D01*
X-22139Y88873D01*
X-22162D01*
X-22208Y88896D01*
X-22278D01*
X-22371Y88943D01*
X-22648Y89012D01*
X-22972Y89105D01*
X-23365Y89243D01*
X-23759Y89429D01*
X-24199Y89637D01*
X-24592Y89891D01*
X-24615D01*
X-24638Y89915D01*
X-24754Y90030D01*
X-24939Y90169D01*
X-25147Y90400D01*
X-25402Y90655D01*
X-25633Y90956D01*
X-25865Y91326D01*
X-26073Y91719D01*
Y91742D01*
X-26096Y91766D01*
X-26119Y91835D01*
X-26142Y91928D01*
X-26235Y92159D01*
X-26327Y92460D01*
X-26420Y92853D01*
X-26512Y93316D01*
X-26559Y93825D01*
X-26582Y94380D01*
Y94658D01*
X-26559Y94797D01*
Y94959D01*
X-26512Y95329D01*
X-26443Y95746D01*
X-26351Y96208D01*
X-26235Y96671D01*
X-26050Y97088D01*
Y97111D01*
X-26026Y97134D01*
X-25957Y97273D01*
X-25841Y97458D01*
X-25680Y97712D01*
X-25448Y97990D01*
X-25194Y98291D01*
X-24893Y98592D01*
X-24523Y98869D01*
X-24476Y98893D01*
X-24337Y98985D01*
X-24129Y99101D01*
X-23851Y99263D01*
X-23504Y99425D01*
X-23088Y99587D01*
X-22602Y99726D01*
X-22070Y99865D01*
X-22047D01*
X-22000Y99888D01*
X-21931D01*
X-21815Y99911D01*
X-21676Y99934D01*
X-21514Y99957D01*
X-21329Y100003D01*
X-21098Y100026D01*
X-20612Y100096D01*
X-20033Y100142D01*
X-19409Y100165D01*
X-18714Y100188D01*
X-18691D01*
X-18622D01*
X-18529D01*
X-18391D01*
X-18229D01*
X-18020Y100165D01*
D02*
G37*
G36*
X-11194Y82765D02*
X-15174D01*
Y86351D01*
X-11194D01*
Y82765D01*
D02*
G37*
G36*
X-14711Y78854D02*
X-11148D01*
Y75175D01*
X-14711D01*
Y68580D01*
X-17511D01*
X-26258Y75036D01*
Y78854D01*
X-17419D01*
Y80890D01*
X-14711D01*
Y78854D01*
D02*
G37*
G36*
X84761Y-9047D02*
X84993D01*
X85247Y-9071D01*
X85780Y-9140D01*
X85803D01*
X85895Y-9163D01*
X86034D01*
X86196Y-9186D01*
X86520Y-9233D01*
X86682Y-9256D01*
X86798Y-9279D01*
Y-12241D01*
X86497D01*
X86474Y-12218D01*
X86404Y-12194D01*
X86312Y-12171D01*
X86173Y-12125D01*
X86034Y-12079D01*
X85849Y-12009D01*
X85641Y-11963D01*
X85618D01*
X85525Y-11940D01*
X85409Y-11894D01*
X85247Y-11870D01*
X85039Y-11824D01*
X84808Y-11801D01*
X84530Y-11778D01*
X84090D01*
X83975Y-11801D01*
X83813D01*
X83651Y-11824D01*
X83257Y-11894D01*
X82818Y-12009D01*
X82355Y-12171D01*
X81915Y-12403D01*
X81522Y-12727D01*
X81476Y-12773D01*
X81360Y-12889D01*
X81221Y-13120D01*
X81013Y-13398D01*
X80828Y-13791D01*
X80619Y-14231D01*
X80458Y-14763D01*
X80342Y-15388D01*
X80365Y-15365D01*
X80481Y-15318D01*
X80619Y-15226D01*
X80805Y-15110D01*
X81036Y-14994D01*
X81291Y-14879D01*
X81846Y-14647D01*
X81892Y-14624D01*
X81985Y-14601D01*
X82147Y-14555D01*
X82355Y-14485D01*
X82610Y-14439D01*
X82910Y-14393D01*
X83234Y-14370D01*
X83581Y-14346D01*
X83882D01*
X84067Y-14370D01*
X84299Y-14393D01*
X84553Y-14439D01*
X85085Y-14578D01*
X85109D01*
X85201Y-14624D01*
X85340Y-14670D01*
X85525Y-14740D01*
X85710Y-14832D01*
X85919Y-14925D01*
X86358Y-15203D01*
X86404Y-15226D01*
X86497Y-15318D01*
X86636Y-15434D01*
X86821Y-15619D01*
X87006Y-15850D01*
X87214Y-16128D01*
X87423Y-16429D01*
X87608Y-16776D01*
X87631Y-16822D01*
X87677Y-16961D01*
X87746Y-17170D01*
X87839Y-17447D01*
X87932Y-17817D01*
X88001Y-18234D01*
X88047Y-18720D01*
X88070Y-19252D01*
Y-19275D01*
Y-19368D01*
Y-19483D01*
X88047Y-19645D01*
X88024Y-19854D01*
X88001Y-20085D01*
X87955Y-20340D01*
X87885Y-20640D01*
X87700Y-21242D01*
X87584Y-21589D01*
X87423Y-21913D01*
X87261Y-22237D01*
X87052Y-22561D01*
X86821Y-22862D01*
X86543Y-23163D01*
X86520Y-23186D01*
X86474Y-23232D01*
X86381Y-23301D01*
X86266Y-23394D01*
X86127Y-23510D01*
X85942Y-23649D01*
X85710Y-23787D01*
X85456Y-23926D01*
X85178Y-24065D01*
X84877Y-24204D01*
X84530Y-24343D01*
X84183Y-24458D01*
X83766Y-24551D01*
X83350Y-24620D01*
X82910Y-24667D01*
X82424Y-24690D01*
X82193D01*
X81962Y-24667D01*
X81638Y-24643D01*
X81267Y-24597D01*
X80874Y-24528D01*
X80458Y-24435D01*
X80064Y-24320D01*
X80018Y-24296D01*
X79902Y-24250D01*
X79694Y-24158D01*
X79463Y-24042D01*
X79185Y-23880D01*
X78907Y-23695D01*
X78606Y-23463D01*
X78329Y-23209D01*
X78282Y-23163D01*
X78190Y-23047D01*
X78028Y-22862D01*
X77843Y-22607D01*
X77635Y-22283D01*
X77403Y-21890D01*
X77195Y-21450D01*
X77010Y-20964D01*
Y-20941D01*
X76987Y-20895D01*
X76964Y-20826D01*
X76940Y-20710D01*
X76917Y-20594D01*
X76871Y-20432D01*
X76825Y-20247D01*
X76802Y-20039D01*
X76709Y-19553D01*
X76640Y-18997D01*
X76593Y-18373D01*
X76570Y-17679D01*
Y-17655D01*
Y-17586D01*
Y-17493D01*
Y-17331D01*
X76593Y-17170D01*
Y-16961D01*
X76616Y-16730D01*
Y-16498D01*
X76663Y-15943D01*
X76755Y-15365D01*
X76848Y-14740D01*
X76987Y-14161D01*
Y-14138D01*
X77010Y-14092D01*
X77033Y-13999D01*
X77079Y-13907D01*
X77102Y-13768D01*
X77172Y-13606D01*
X77311Y-13236D01*
X77519Y-12819D01*
X77750Y-12356D01*
X78028Y-11894D01*
X78375Y-11431D01*
Y-11408D01*
X78421Y-11385D01*
X78537Y-11246D01*
X78745Y-11037D01*
X79023Y-10783D01*
X79347Y-10505D01*
X79763Y-10204D01*
X80226Y-9927D01*
X80758Y-9672D01*
X80781D01*
X80828Y-9649D01*
X80920Y-9603D01*
X81036Y-9580D01*
X81175Y-9510D01*
X81337Y-9464D01*
X81545Y-9418D01*
X81777Y-9348D01*
X82008Y-9279D01*
X82286Y-9233D01*
X82887Y-9117D01*
X83558Y-9047D01*
X84299Y-9024D01*
X84576D01*
X84761Y-9047D01*
D02*
G37*
G36*
X123798Y-12727D02*
X123983D01*
X124214Y-12773D01*
X124446Y-12819D01*
X124700Y-12866D01*
X124931Y-12958D01*
X124955D01*
X125047Y-13004D01*
X125163Y-13074D01*
X125302Y-13143D01*
X125464Y-13259D01*
X125649Y-13398D01*
X125834Y-13537D01*
X125996Y-13722D01*
X126019Y-13745D01*
X126065Y-13814D01*
X126158Y-13930D01*
X126250Y-14092D01*
X126366Y-14277D01*
X126482Y-14508D01*
X126597Y-14763D01*
X126690Y-15041D01*
X126713Y-15064D01*
X126736Y-15180D01*
X126783Y-15341D01*
X126829Y-15550D01*
X126875Y-15850D01*
X126898Y-16174D01*
X126945Y-16545D01*
Y-16984D01*
Y-24366D01*
X123404D01*
Y-18697D01*
Y-18650D01*
Y-18558D01*
Y-18396D01*
Y-18211D01*
Y-17979D01*
X123381Y-17748D01*
Y-17517D01*
X123358Y-17285D01*
Y-17262D01*
Y-17193D01*
X123335Y-17077D01*
Y-16961D01*
X123265Y-16660D01*
X123173Y-16360D01*
Y-16336D01*
X123150Y-16290D01*
X123057Y-16151D01*
X122918Y-15989D01*
X122710Y-15827D01*
X122687D01*
X122641Y-15804D01*
X122571Y-15758D01*
X122479Y-15735D01*
X122340Y-15689D01*
X122201Y-15665D01*
X122016Y-15642D01*
X121669D01*
X121553Y-15665D01*
X121322Y-15712D01*
X121021Y-15827D01*
X120998D01*
X120951Y-15850D01*
X120882Y-15897D01*
X120766Y-15966D01*
X120489Y-16128D01*
X120165Y-16336D01*
Y-24366D01*
X116624D01*
Y-18697D01*
Y-18650D01*
Y-18558D01*
Y-18419D01*
Y-18211D01*
Y-18003D01*
X116601Y-17771D01*
X116578Y-17308D01*
Y-17285D01*
Y-17216D01*
X116555Y-17100D01*
X116532Y-16961D01*
X116486Y-16660D01*
X116439Y-16498D01*
X116393Y-16360D01*
Y-16336D01*
X116370Y-16290D01*
X116277Y-16151D01*
X116115Y-15989D01*
X115907Y-15827D01*
X115884D01*
X115861Y-15804D01*
X115791Y-15758D01*
X115676Y-15735D01*
X115560Y-15689D01*
X115421Y-15665D01*
X115236Y-15642D01*
X114866D01*
X114750Y-15665D01*
X114473Y-15735D01*
X114172Y-15850D01*
X114149D01*
X114102Y-15897D01*
X114033Y-15920D01*
X113917Y-15989D01*
X113686Y-16151D01*
X113385Y-16336D01*
Y-24366D01*
X109845D01*
Y-13004D01*
X113385D01*
Y-14277D01*
X113431Y-14254D01*
X113524Y-14161D01*
X113686Y-14023D01*
X113917Y-13860D01*
X114149Y-13675D01*
X114426Y-13467D01*
X114727Y-13282D01*
X115005Y-13120D01*
X115051Y-13097D01*
X115143Y-13051D01*
X115306Y-12981D01*
X115514Y-12912D01*
X115768Y-12842D01*
X116069Y-12773D01*
X116393Y-12727D01*
X116740Y-12704D01*
X116925D01*
X117110Y-12727D01*
X117365Y-12773D01*
X117643Y-12819D01*
X117943Y-12912D01*
X118267Y-13051D01*
X118568Y-13213D01*
X118614Y-13236D01*
X118707Y-13305D01*
X118846Y-13421D01*
X119008Y-13583D01*
X119216Y-13791D01*
X119401Y-14046D01*
X119609Y-14346D01*
X119771Y-14693D01*
X119795D01*
X119818Y-14647D01*
X119957Y-14532D01*
X120142Y-14370D01*
X120396Y-14161D01*
X120697Y-13930D01*
X121021Y-13675D01*
X121345Y-13444D01*
X121692Y-13236D01*
X121738Y-13213D01*
X121854Y-13143D01*
X122016Y-13074D01*
X122270Y-12958D01*
X122525Y-12866D01*
X122849Y-12796D01*
X123173Y-12727D01*
X123520Y-12704D01*
X123659D01*
X123798Y-12727D01*
D02*
G37*
G36*
X104060D02*
X104245D01*
X104476Y-12773D01*
X104708Y-12819D01*
X104962Y-12866D01*
X105194Y-12958D01*
X105217D01*
X105309Y-13004D01*
X105425Y-13074D01*
X105564Y-13143D01*
X105726Y-13259D01*
X105911Y-13398D01*
X106096Y-13537D01*
X106258Y-13722D01*
X106281Y-13745D01*
X106327Y-13814D01*
X106420Y-13930D01*
X106512Y-14092D01*
X106628Y-14277D01*
X106744Y-14508D01*
X106860Y-14763D01*
X106952Y-15041D01*
X106975Y-15064D01*
X106999Y-15180D01*
X107045Y-15341D01*
X107091Y-15550D01*
X107137Y-15850D01*
X107160Y-16174D01*
X107207Y-16545D01*
Y-16984D01*
Y-24366D01*
X103666D01*
Y-18697D01*
Y-18650D01*
Y-18558D01*
Y-18396D01*
Y-18211D01*
Y-17979D01*
X103643Y-17748D01*
Y-17517D01*
X103620Y-17285D01*
Y-17262D01*
Y-17193D01*
X103597Y-17077D01*
Y-16961D01*
X103528Y-16660D01*
X103435Y-16360D01*
Y-16336D01*
X103412Y-16290D01*
X103319Y-16151D01*
X103181Y-15989D01*
X102972Y-15827D01*
X102949D01*
X102903Y-15804D01*
X102833Y-15758D01*
X102741Y-15735D01*
X102602Y-15689D01*
X102463Y-15665D01*
X102278Y-15642D01*
X101931D01*
X101815Y-15665D01*
X101584Y-15712D01*
X101283Y-15827D01*
X101260D01*
X101214Y-15850D01*
X101144Y-15897D01*
X101028Y-15966D01*
X100751Y-16128D01*
X100427Y-16336D01*
Y-24366D01*
X96887D01*
Y-18697D01*
Y-18650D01*
Y-18558D01*
Y-18419D01*
Y-18211D01*
Y-18003D01*
X96863Y-17771D01*
X96840Y-17308D01*
Y-17285D01*
Y-17216D01*
X96817Y-17100D01*
X96794Y-16961D01*
X96748Y-16660D01*
X96701Y-16498D01*
X96655Y-16360D01*
Y-16336D01*
X96632Y-16290D01*
X96539Y-16151D01*
X96377Y-15989D01*
X96169Y-15827D01*
X96146D01*
X96123Y-15804D01*
X96053Y-15758D01*
X95938Y-15735D01*
X95822Y-15689D01*
X95683Y-15665D01*
X95498Y-15642D01*
X95128D01*
X95012Y-15665D01*
X94735Y-15735D01*
X94434Y-15850D01*
X94411D01*
X94364Y-15897D01*
X94295Y-15920D01*
X94179Y-15989D01*
X93948Y-16151D01*
X93647Y-16336D01*
Y-24366D01*
X90107D01*
Y-13004D01*
X93647D01*
Y-14277D01*
X93693Y-14254D01*
X93786Y-14161D01*
X93948Y-14023D01*
X94179Y-13860D01*
X94411Y-13675D01*
X94688Y-13467D01*
X94989Y-13282D01*
X95267Y-13120D01*
X95313Y-13097D01*
X95406Y-13051D01*
X95568Y-12981D01*
X95776Y-12912D01*
X96030Y-12842D01*
X96331Y-12773D01*
X96655Y-12727D01*
X97002Y-12704D01*
X97187D01*
X97373Y-12727D01*
X97627Y-12773D01*
X97905Y-12819D01*
X98205Y-12912D01*
X98529Y-13051D01*
X98830Y-13213D01*
X98876Y-13236D01*
X98969Y-13305D01*
X99108Y-13421D01*
X99270Y-13583D01*
X99478Y-13791D01*
X99663Y-14046D01*
X99872Y-14346D01*
X100034Y-14693D01*
X100057D01*
X100080Y-14647D01*
X100219Y-14532D01*
X100404Y-14370D01*
X100658Y-14161D01*
X100959Y-13930D01*
X101283Y-13675D01*
X101607Y-13444D01*
X101954Y-13236D01*
X102000Y-13213D01*
X102116Y-13143D01*
X102278Y-13074D01*
X102533Y-12958D01*
X102787Y-12866D01*
X103111Y-12796D01*
X103435Y-12727D01*
X103782Y-12704D01*
X103921D01*
X104060Y-12727D01*
D02*
G37*
G36*
X60951Y-24366D02*
X57365D01*
Y-20386D01*
X60951D01*
Y-24366D01*
D02*
G37*
G36*
X53454Y-18141D02*
X55490D01*
Y-20849D01*
X53454D01*
Y-24412D01*
X49775D01*
Y-20849D01*
X43180D01*
Y-18049D01*
X49636Y-9302D01*
X53454D01*
Y-18141D01*
D02*
G37*
G36*
X69397Y-9001D02*
X69559D01*
X69929Y-9047D01*
X70346Y-9117D01*
X70808Y-9209D01*
X71271Y-9325D01*
X71688Y-9510D01*
X71711D01*
X71734Y-9534D01*
X71873Y-9603D01*
X72058Y-9719D01*
X72312Y-9880D01*
X72590Y-10112D01*
X72891Y-10366D01*
X73192Y-10667D01*
X73470Y-11037D01*
X73493Y-11084D01*
X73585Y-11223D01*
X73701Y-11431D01*
X73863Y-11709D01*
X74025Y-12056D01*
X74187Y-12472D01*
X74326Y-12958D01*
X74465Y-13490D01*
Y-13513D01*
X74488Y-13560D01*
Y-13629D01*
X74511Y-13745D01*
X74534Y-13884D01*
X74557Y-14046D01*
X74603Y-14231D01*
X74626Y-14462D01*
X74696Y-14948D01*
X74742Y-15527D01*
X74765Y-16151D01*
X74788Y-16846D01*
Y-16869D01*
Y-16938D01*
Y-17031D01*
Y-17170D01*
Y-17331D01*
X74765Y-17540D01*
Y-17748D01*
X74742Y-18003D01*
X74719Y-18535D01*
X74650Y-19113D01*
X74580Y-19692D01*
X74465Y-20270D01*
Y-20293D01*
X74441Y-20340D01*
Y-20409D01*
X74395Y-20501D01*
X74326Y-20779D01*
X74210Y-21126D01*
X74071Y-21520D01*
X73909Y-21913D01*
X73701Y-22329D01*
X73470Y-22723D01*
X73446Y-22769D01*
X73354Y-22885D01*
X73192Y-23047D01*
X72983Y-23278D01*
X72729Y-23510D01*
X72405Y-23764D01*
X72058Y-23996D01*
X71665Y-24204D01*
X71642D01*
X71618Y-24227D01*
X71549Y-24250D01*
X71480Y-24273D01*
X71248Y-24366D01*
X70924Y-24435D01*
X70531Y-24528D01*
X70068Y-24620D01*
X69559Y-24667D01*
X68980Y-24690D01*
X68726D01*
X68587Y-24667D01*
X68425D01*
X68055Y-24620D01*
X67615Y-24574D01*
X67176Y-24481D01*
X66713Y-24366D01*
X66273Y-24204D01*
X66250D01*
X66227Y-24181D01*
X66088Y-24111D01*
X65903Y-23996D01*
X65648Y-23834D01*
X65347Y-23602D01*
X65047Y-23348D01*
X64746Y-23047D01*
X64468Y-22700D01*
Y-22677D01*
X64445Y-22654D01*
X64353Y-22515D01*
X64237Y-22306D01*
X64098Y-22029D01*
X63936Y-21658D01*
X63774Y-21242D01*
X63612Y-20779D01*
X63473Y-20247D01*
Y-20224D01*
X63450Y-20178D01*
Y-20108D01*
X63427Y-19993D01*
X63404Y-19854D01*
X63381Y-19692D01*
X63358Y-19483D01*
X63334Y-19275D01*
X63265Y-18766D01*
X63219Y-18188D01*
X63196Y-17540D01*
X63172Y-16846D01*
Y-16822D01*
Y-16753D01*
Y-16660D01*
Y-16498D01*
Y-16336D01*
X63196Y-16128D01*
Y-15897D01*
X63219Y-15665D01*
X63242Y-15133D01*
X63311Y-14555D01*
X63381Y-13976D01*
X63473Y-13421D01*
Y-13398D01*
X63496Y-13352D01*
Y-13282D01*
X63543Y-13190D01*
X63612Y-12912D01*
X63705Y-12588D01*
X63843Y-12194D01*
X64029Y-11801D01*
X64237Y-11362D01*
X64491Y-10968D01*
Y-10945D01*
X64514Y-10922D01*
X64630Y-10806D01*
X64769Y-10621D01*
X65001Y-10413D01*
X65255Y-10158D01*
X65556Y-9927D01*
X65926Y-9695D01*
X66319Y-9487D01*
X66343D01*
X66366Y-9464D01*
X66435Y-9441D01*
X66528Y-9418D01*
X66759Y-9325D01*
X67060Y-9233D01*
X67453Y-9140D01*
X67916Y-9047D01*
X68425Y-9001D01*
X68980Y-8978D01*
X69258D01*
X69397Y-9001D01*
D02*
G37*
G36*
X-40404Y673703D02*
X-46073D01*
X-46120D01*
X-46212D01*
X-46374D01*
X-46559D01*
X-46791D01*
X-47022Y673680D01*
X-47253D01*
X-47485Y673656D01*
X-47508D01*
X-47577D01*
X-47693Y673633D01*
X-47809D01*
X-48110Y673564D01*
X-48410Y673471D01*
X-48434D01*
X-48480Y673448D01*
X-48619Y673356D01*
X-48781Y673217D01*
X-48943Y673009D01*
Y672986D01*
X-48966Y672939D01*
X-49012Y672870D01*
X-49035Y672777D01*
X-49082Y672638D01*
X-49105Y672499D01*
X-49128Y672314D01*
Y671967D01*
X-49105Y671852D01*
X-49058Y671620D01*
X-48943Y671319D01*
Y671296D01*
X-48920Y671250D01*
X-48873Y671181D01*
X-48804Y671065D01*
X-48642Y670787D01*
X-48434Y670463D01*
X-40404D01*
Y666923D01*
X-46073D01*
X-46120D01*
X-46212D01*
X-46351D01*
X-46559D01*
X-46768D01*
X-46999Y666900D01*
X-47462Y666877D01*
X-47485D01*
X-47554D01*
X-47670Y666853D01*
X-47809Y666830D01*
X-48110Y666784D01*
X-48272Y666738D01*
X-48410Y666692D01*
X-48434D01*
X-48480Y666668D01*
X-48619Y666576D01*
X-48781Y666414D01*
X-48943Y666206D01*
Y666182D01*
X-48966Y666159D01*
X-49012Y666090D01*
X-49035Y665974D01*
X-49082Y665859D01*
X-49105Y665720D01*
X-49128Y665535D01*
Y665164D01*
X-49105Y665049D01*
X-49035Y664771D01*
X-48920Y664470D01*
Y664447D01*
X-48873Y664401D01*
X-48850Y664331D01*
X-48781Y664216D01*
X-48619Y663984D01*
X-48434Y663683D01*
X-40404D01*
Y660143D01*
X-51766D01*
Y663683D01*
X-50493D01*
X-50516Y663730D01*
X-50609Y663822D01*
X-50747Y663984D01*
X-50910Y664216D01*
X-51095Y664447D01*
X-51303Y664725D01*
X-51488Y665025D01*
X-51650Y665303D01*
X-51673Y665350D01*
X-51719Y665442D01*
X-51789Y665604D01*
X-51858Y665812D01*
X-51928Y666067D01*
X-51997Y666368D01*
X-52043Y666692D01*
X-52066Y667039D01*
Y667224D01*
X-52043Y667409D01*
X-51997Y667663D01*
X-51951Y667941D01*
X-51858Y668242D01*
X-51719Y668566D01*
X-51557Y668867D01*
X-51534Y668913D01*
X-51465Y669006D01*
X-51349Y669144D01*
X-51187Y669306D01*
X-50979Y669515D01*
X-50724Y669700D01*
X-50423Y669908D01*
X-50076Y670070D01*
Y670093D01*
X-50123Y670116D01*
X-50238Y670255D01*
X-50400Y670440D01*
X-50609Y670695D01*
X-50840Y670995D01*
X-51095Y671319D01*
X-51326Y671643D01*
X-51534Y671991D01*
X-51557Y672037D01*
X-51627Y672152D01*
X-51696Y672314D01*
X-51812Y672569D01*
X-51905Y672823D01*
X-51974Y673147D01*
X-52043Y673471D01*
X-52066Y673819D01*
Y673957D01*
X-52043Y674096D01*
Y674281D01*
X-51997Y674513D01*
X-51951Y674744D01*
X-51905Y674999D01*
X-51812Y675230D01*
Y675253D01*
X-51766Y675346D01*
X-51696Y675461D01*
X-51627Y675600D01*
X-51511Y675762D01*
X-51372Y675947D01*
X-51233Y676132D01*
X-51048Y676294D01*
X-51025Y676318D01*
X-50956Y676364D01*
X-50840Y676456D01*
X-50678Y676549D01*
X-50493Y676665D01*
X-50262Y676780D01*
X-50007Y676896D01*
X-49729Y676989D01*
X-49706Y677012D01*
X-49591Y677035D01*
X-49429Y677081D01*
X-49220Y677127D01*
X-48920Y677174D01*
X-48595Y677197D01*
X-48225Y677243D01*
X-47786D01*
X-40404D01*
Y673703D01*
D02*
G37*
G36*
Y653965D02*
X-46073D01*
X-46120D01*
X-46212D01*
X-46374D01*
X-46559D01*
X-46791D01*
X-47022Y653942D01*
X-47253D01*
X-47485Y653919D01*
X-47508D01*
X-47577D01*
X-47693Y653895D01*
X-47809D01*
X-48110Y653826D01*
X-48410Y653734D01*
X-48434D01*
X-48480Y653710D01*
X-48619Y653618D01*
X-48781Y653479D01*
X-48943Y653271D01*
Y653248D01*
X-48966Y653201D01*
X-49012Y653132D01*
X-49035Y653039D01*
X-49082Y652900D01*
X-49105Y652762D01*
X-49128Y652577D01*
Y652229D01*
X-49105Y652114D01*
X-49058Y651882D01*
X-48943Y651581D01*
Y651558D01*
X-48920Y651512D01*
X-48873Y651443D01*
X-48804Y651327D01*
X-48642Y651049D01*
X-48434Y650725D01*
X-40404D01*
Y647185D01*
X-46073D01*
X-46120D01*
X-46212D01*
X-46351D01*
X-46559D01*
X-46768D01*
X-46999Y647162D01*
X-47462Y647139D01*
X-47485D01*
X-47554D01*
X-47670Y647116D01*
X-47809Y647093D01*
X-48110Y647046D01*
X-48272Y647000D01*
X-48410Y646954D01*
X-48434D01*
X-48480Y646930D01*
X-48619Y646838D01*
X-48781Y646676D01*
X-48943Y646468D01*
Y646445D01*
X-48966Y646421D01*
X-49012Y646352D01*
X-49035Y646236D01*
X-49082Y646121D01*
X-49105Y645982D01*
X-49128Y645797D01*
Y645426D01*
X-49105Y645311D01*
X-49035Y645033D01*
X-48920Y644732D01*
Y644709D01*
X-48873Y644663D01*
X-48850Y644593D01*
X-48781Y644478D01*
X-48619Y644246D01*
X-48434Y643945D01*
X-40404D01*
Y640405D01*
X-51766D01*
Y643945D01*
X-50493D01*
X-50516Y643992D01*
X-50609Y644084D01*
X-50747Y644246D01*
X-50910Y644478D01*
X-51095Y644709D01*
X-51303Y644987D01*
X-51488Y645288D01*
X-51650Y645565D01*
X-51673Y645612D01*
X-51719Y645704D01*
X-51789Y645866D01*
X-51858Y646074D01*
X-51928Y646329D01*
X-51997Y646630D01*
X-52043Y646954D01*
X-52066Y647301D01*
Y647486D01*
X-52043Y647671D01*
X-51997Y647925D01*
X-51951Y648203D01*
X-51858Y648504D01*
X-51719Y648828D01*
X-51557Y649129D01*
X-51534Y649175D01*
X-51465Y649268D01*
X-51349Y649406D01*
X-51187Y649568D01*
X-50979Y649777D01*
X-50724Y649962D01*
X-50423Y650170D01*
X-50076Y650332D01*
Y650355D01*
X-50123Y650378D01*
X-50238Y650517D01*
X-50400Y650702D01*
X-50609Y650957D01*
X-50840Y651258D01*
X-51095Y651581D01*
X-51326Y651906D01*
X-51534Y652253D01*
X-51557Y652299D01*
X-51627Y652414D01*
X-51696Y652577D01*
X-51812Y652831D01*
X-51905Y653086D01*
X-51974Y653410D01*
X-52043Y653734D01*
X-52066Y654081D01*
Y654219D01*
X-52043Y654358D01*
Y654543D01*
X-51997Y654775D01*
X-51951Y655006D01*
X-51905Y655261D01*
X-51812Y655492D01*
Y655515D01*
X-51766Y655608D01*
X-51696Y655723D01*
X-51627Y655862D01*
X-51511Y656024D01*
X-51372Y656209D01*
X-51233Y656395D01*
X-51048Y656556D01*
X-51025Y656580D01*
X-50956Y656626D01*
X-50840Y656719D01*
X-50678Y656811D01*
X-50493Y656927D01*
X-50262Y657042D01*
X-50007Y657158D01*
X-49729Y657251D01*
X-49706Y657274D01*
X-49591Y657297D01*
X-49429Y657343D01*
X-49220Y657390D01*
X-48920Y657436D01*
X-48595Y657459D01*
X-48225Y657505D01*
X-47786D01*
X-40404D01*
Y653965D01*
D02*
G37*
G36*
X-47230Y638253D02*
X-47022D01*
X-46768Y638230D01*
X-46235Y638207D01*
X-45657Y638138D01*
X-45078Y638068D01*
X-44500Y637952D01*
X-44477D01*
X-44430Y637929D01*
X-44361D01*
X-44268Y637883D01*
X-43991Y637814D01*
X-43644Y637698D01*
X-43250Y637559D01*
X-42857Y637397D01*
X-42441Y637189D01*
X-42047Y636957D01*
X-42001Y636934D01*
X-41885Y636842D01*
X-41723Y636680D01*
X-41492Y636471D01*
X-41260Y636217D01*
X-41006Y635893D01*
X-40774Y635546D01*
X-40566Y635153D01*
Y635129D01*
X-40543Y635106D01*
X-40520Y635037D01*
X-40497Y634967D01*
X-40404Y634736D01*
X-40335Y634412D01*
X-40242Y634019D01*
X-40150Y633556D01*
X-40103Y633047D01*
X-40080Y632468D01*
Y632214D01*
X-40103Y632075D01*
Y631913D01*
X-40150Y631543D01*
X-40196Y631103D01*
X-40289Y630663D01*
X-40404Y630201D01*
X-40566Y629761D01*
Y629738D01*
X-40589Y629715D01*
X-40659Y629576D01*
X-40774Y629391D01*
X-40936Y629136D01*
X-41168Y628835D01*
X-41422Y628535D01*
X-41723Y628234D01*
X-42070Y627956D01*
X-42093D01*
X-42116Y627933D01*
X-42255Y627840D01*
X-42464Y627725D01*
X-42741Y627586D01*
X-43112Y627424D01*
X-43528Y627262D01*
X-43991Y627100D01*
X-44523Y626961D01*
X-44546D01*
X-44592Y626938D01*
X-44662D01*
X-44777Y626915D01*
X-44916Y626892D01*
X-45078Y626869D01*
X-45287Y626846D01*
X-45495Y626822D01*
X-46004Y626753D01*
X-46582Y626707D01*
X-47230Y626684D01*
X-47924Y626660D01*
X-47948D01*
X-48017D01*
X-48110D01*
X-48272D01*
X-48434D01*
X-48642Y626684D01*
X-48873D01*
X-49105Y626707D01*
X-49637Y626730D01*
X-50215Y626799D01*
X-50794Y626869D01*
X-51349Y626961D01*
X-51372D01*
X-51418Y626984D01*
X-51488D01*
X-51581Y627031D01*
X-51858Y627100D01*
X-52182Y627193D01*
X-52575Y627331D01*
X-52969Y627517D01*
X-53408Y627725D01*
X-53802Y627979D01*
X-53825D01*
X-53848Y628003D01*
X-53964Y628118D01*
X-54149Y628257D01*
X-54357Y628488D01*
X-54612Y628743D01*
X-54843Y629044D01*
X-55075Y629414D01*
X-55283Y629807D01*
Y629831D01*
X-55306Y629854D01*
X-55329Y629923D01*
X-55352Y630016D01*
X-55445Y630247D01*
X-55537Y630548D01*
X-55630Y630941D01*
X-55722Y631404D01*
X-55769Y631913D01*
X-55792Y632468D01*
Y632746D01*
X-55769Y632885D01*
Y633047D01*
X-55722Y633417D01*
X-55653Y633834D01*
X-55560Y634296D01*
X-55445Y634759D01*
X-55260Y635176D01*
Y635199D01*
X-55237Y635222D01*
X-55167Y635361D01*
X-55051Y635546D01*
X-54889Y635801D01*
X-54658Y636078D01*
X-54404Y636379D01*
X-54103Y636680D01*
X-53733Y636957D01*
X-53686Y636981D01*
X-53547Y637073D01*
X-53339Y637189D01*
X-53061Y637351D01*
X-52714Y637513D01*
X-52298Y637675D01*
X-51812Y637814D01*
X-51280Y637952D01*
X-51257D01*
X-51210Y637976D01*
X-51141D01*
X-51025Y637999D01*
X-50886Y638022D01*
X-50724Y638045D01*
X-50539Y638091D01*
X-50308Y638114D01*
X-49822Y638184D01*
X-49243Y638230D01*
X-48619Y638253D01*
X-47924Y638276D01*
X-47901D01*
X-47832D01*
X-47739D01*
X-47600D01*
X-47439D01*
X-47230Y638253D01*
D02*
G37*
G36*
X-40404Y614674D02*
X-43042D01*
Y617844D01*
X-50979D01*
Y614674D01*
X-53432D01*
Y615114D01*
X-53455Y615322D01*
Y615554D01*
X-53501Y616039D01*
Y616063D01*
X-53524Y616155D01*
X-53547Y616271D01*
X-53570Y616433D01*
X-53663Y616803D01*
X-53733Y616988D01*
X-53802Y617150D01*
X-53825Y617173D01*
X-53848Y617220D01*
X-53895Y617312D01*
X-53987Y617428D01*
X-54172Y617659D01*
X-54450Y617891D01*
X-54473Y617914D01*
X-54519Y617937D01*
X-54612Y617983D01*
X-54728Y618029D01*
X-54889Y618099D01*
X-55075Y618145D01*
X-55260Y618191D01*
X-55491Y618214D01*
Y621523D01*
X-43042D01*
Y624624D01*
X-40404D01*
Y614674D01*
D02*
G37*
G36*
Y607663D02*
X-44384D01*
Y611250D01*
X-40404D01*
Y607663D01*
D02*
G37*
G36*
X-45078Y605233D02*
X-44777Y605210D01*
X-44430Y605164D01*
X-44060Y605071D01*
X-43690Y604979D01*
X-43297Y604840D01*
X-43250Y604817D01*
X-43135Y604771D01*
X-42950Y604678D01*
X-42718Y604539D01*
X-42441Y604377D01*
X-42163Y604169D01*
X-41862Y603914D01*
X-41584Y603637D01*
X-41561Y603590D01*
X-41469Y603498D01*
X-41330Y603336D01*
X-41168Y603105D01*
X-41006Y602827D01*
X-40821Y602526D01*
X-40636Y602156D01*
X-40474Y601762D01*
Y601739D01*
X-40451Y601716D01*
X-40427Y601647D01*
X-40404Y601577D01*
X-40358Y601346D01*
X-40289Y601022D01*
X-40196Y600629D01*
X-40150Y600189D01*
X-40103Y599657D01*
X-40080Y599101D01*
Y598824D01*
X-40103Y598685D01*
Y598500D01*
X-40127Y598106D01*
X-40173Y597644D01*
X-40219Y597181D01*
X-40289Y596672D01*
X-40381Y596209D01*
Y596186D01*
X-40404Y596163D01*
Y596093D01*
X-40427Y596001D01*
X-40474Y595792D01*
X-40543Y595515D01*
X-40636Y595191D01*
X-40751Y594867D01*
X-40867Y594520D01*
X-40983Y594219D01*
X-44268D01*
Y594566D01*
X-44245Y594589D01*
X-44153Y594728D01*
X-44014Y594936D01*
X-43875Y595191D01*
Y595214D01*
X-43852Y595260D01*
X-43806Y595330D01*
X-43759Y595445D01*
X-43690Y595561D01*
X-43621Y595723D01*
X-43551Y595908D01*
X-43459Y596116D01*
Y596139D01*
X-43435Y596209D01*
X-43389Y596325D01*
X-43343Y596464D01*
X-43274Y596626D01*
X-43227Y596811D01*
X-43112Y597204D01*
Y597227D01*
X-43088Y597296D01*
X-43065Y597412D01*
X-43042Y597574D01*
X-43019Y597759D01*
X-42996Y597967D01*
X-42973Y598430D01*
Y598662D01*
X-42996Y598824D01*
Y599009D01*
X-43042Y599217D01*
X-43112Y599703D01*
Y599726D01*
X-43135Y599819D01*
X-43181Y599934D01*
X-43227Y600096D01*
X-43389Y600467D01*
X-43505Y600629D01*
X-43644Y600790D01*
X-43667Y600814D01*
X-43690Y600837D01*
X-43852Y600976D01*
X-44060Y601138D01*
X-44315Y601277D01*
X-44338D01*
X-44384Y601300D01*
X-44477Y601346D01*
X-44592Y601369D01*
X-44731Y601415D01*
X-44916Y601438D01*
X-45125Y601462D01*
X-45356D01*
X-45379D01*
X-45449D01*
X-45541D01*
X-45680Y601438D01*
X-45958Y601369D01*
X-46259Y601230D01*
X-46282D01*
X-46328Y601184D01*
X-46397Y601138D01*
X-46490Y601091D01*
X-46698Y600906D01*
X-46883Y600652D01*
X-46906Y600629D01*
X-46929Y600559D01*
X-46999Y600443D01*
X-47068Y600305D01*
X-47138Y600120D01*
X-47207Y599911D01*
X-47277Y599680D01*
X-47323Y599402D01*
Y599379D01*
X-47346Y599286D01*
X-47369Y599148D01*
X-47392Y598986D01*
Y598777D01*
X-47415Y598569D01*
X-47439Y598153D01*
Y597852D01*
X-47415Y597644D01*
Y597389D01*
X-47392Y597111D01*
X-47300Y596533D01*
Y596510D01*
X-47277Y596394D01*
X-47253Y596255D01*
X-47207Y596070D01*
X-47161Y595862D01*
X-47115Y595630D01*
X-47022Y595191D01*
Y594867D01*
X-55468D01*
Y604840D01*
X-52622D01*
Y598430D01*
X-50100D01*
Y598546D01*
X-50123Y598639D01*
Y598870D01*
X-50146Y599148D01*
Y599286D01*
X-50169Y599379D01*
Y600189D01*
X-50146Y600467D01*
X-50123Y600767D01*
X-50076Y601115D01*
X-49938Y601809D01*
Y601855D01*
X-49891Y601971D01*
X-49845Y602133D01*
X-49776Y602364D01*
X-49683Y602619D01*
X-49567Y602873D01*
X-49429Y603151D01*
X-49267Y603428D01*
X-49243Y603475D01*
X-49174Y603567D01*
X-49035Y603729D01*
X-48873Y603914D01*
X-48665Y604123D01*
X-48387Y604354D01*
X-48110Y604585D01*
X-47762Y604771D01*
X-47716Y604794D01*
X-47600Y604840D01*
X-47392Y604933D01*
X-47138Y605025D01*
X-46814Y605094D01*
X-46420Y605187D01*
X-45981Y605233D01*
X-45495Y605256D01*
X-45472D01*
X-45449D01*
X-45379D01*
X-45287D01*
X-45078Y605233D01*
D02*
G37*
G36*
X-40404Y581353D02*
X-42857D01*
X-42880Y581377D01*
X-42903Y581423D01*
X-42973Y581492D01*
X-43042Y581585D01*
X-43250Y581862D01*
X-43528Y582187D01*
X-43852Y582580D01*
X-44199Y582996D01*
X-44569Y583436D01*
X-44939Y583853D01*
X-44963Y583876D01*
X-44986Y583899D01*
X-45101Y584038D01*
X-45310Y584246D01*
X-45541Y584524D01*
X-45842Y584847D01*
X-46166Y585171D01*
X-46490Y585518D01*
X-46837Y585843D01*
X-46860Y585866D01*
X-46883Y585889D01*
X-47022Y586028D01*
X-47253Y586213D01*
X-47531Y586467D01*
X-47832Y586722D01*
X-48179Y586976D01*
X-48526Y587231D01*
X-48873Y587439D01*
X-48920Y587462D01*
X-49035Y587509D01*
X-49197Y587601D01*
X-49429Y587694D01*
X-49706Y587786D01*
X-50007Y587879D01*
X-50331Y587925D01*
X-50678Y587948D01*
X-50701D01*
X-50724D01*
X-50840D01*
X-51048Y587925D01*
X-51280Y587879D01*
X-51534Y587786D01*
X-51789Y587671D01*
X-52043Y587509D01*
X-52275Y587300D01*
X-52298Y587277D01*
X-52367Y587185D01*
X-52460Y587046D01*
X-52575Y586861D01*
X-52668Y586606D01*
X-52761Y586305D01*
X-52830Y585958D01*
X-52853Y585565D01*
Y585357D01*
X-52830Y585218D01*
X-52807Y585056D01*
X-52784Y584871D01*
X-52691Y584477D01*
Y584454D01*
X-52668Y584385D01*
X-52645Y584292D01*
X-52599Y584153D01*
X-52552Y583991D01*
X-52483Y583829D01*
X-52344Y583436D01*
Y583413D01*
X-52298Y583343D01*
X-52252Y583251D01*
X-52205Y583135D01*
X-52043Y582858D01*
X-51858Y582557D01*
Y582534D01*
X-51812Y582487D01*
X-51719Y582348D01*
X-51604Y582163D01*
X-51511Y582001D01*
Y581724D01*
X-54797D01*
X-54820Y581747D01*
X-54843Y581839D01*
X-54913Y582001D01*
X-54982Y582210D01*
X-55075Y582487D01*
X-55190Y582811D01*
X-55306Y583228D01*
X-55422Y583690D01*
Y583714D01*
X-55445Y583760D01*
Y583829D01*
X-55468Y583922D01*
X-55491Y584038D01*
X-55514Y584200D01*
X-55584Y584524D01*
X-55653Y584940D01*
X-55699Y585380D01*
X-55722Y585843D01*
X-55746Y586305D01*
Y586560D01*
X-55722Y586745D01*
X-55699Y586976D01*
X-55676Y587231D01*
X-55653Y587509D01*
X-55607Y587832D01*
X-55445Y588480D01*
X-55237Y589151D01*
X-55098Y589498D01*
X-54936Y589799D01*
X-54751Y590100D01*
X-54542Y590378D01*
X-54519Y590401D01*
X-54496Y590447D01*
X-54427Y590517D01*
X-54311Y590586D01*
X-54195Y590702D01*
X-54056Y590817D01*
X-53871Y590933D01*
X-53663Y591072D01*
X-53455Y591211D01*
X-53200Y591326D01*
X-52923Y591442D01*
X-52622Y591558D01*
X-52298Y591627D01*
X-51951Y591697D01*
X-51581Y591743D01*
X-51187Y591766D01*
X-51164D01*
X-51118D01*
X-51048D01*
X-50956D01*
X-50840Y591743D01*
X-50701D01*
X-50354Y591697D01*
X-49961Y591604D01*
X-49521Y591488D01*
X-49058Y591326D01*
X-48572Y591118D01*
X-48549D01*
X-48526Y591095D01*
X-48457Y591049D01*
X-48341Y591003D01*
X-48225Y590933D01*
X-48087Y590841D01*
X-47762Y590632D01*
X-47346Y590331D01*
X-46883Y589984D01*
X-46374Y589545D01*
X-45842Y589036D01*
X-45796Y588989D01*
X-45680Y588874D01*
X-45518Y588712D01*
X-45310Y588480D01*
X-45055Y588203D01*
X-44777Y587925D01*
X-44222Y587277D01*
X-44199Y587231D01*
X-44106Y587138D01*
X-43991Y586976D01*
X-43852Y586791D01*
X-43528Y586398D01*
X-43366Y586190D01*
X-43250Y586028D01*
Y592414D01*
X-40404D01*
Y581353D01*
D02*
G37*
G36*
Y568627D02*
X-43042D01*
Y571797D01*
X-50979D01*
Y568627D01*
X-53432D01*
Y569066D01*
X-53455Y569275D01*
Y569506D01*
X-53501Y569992D01*
Y570015D01*
X-53524Y570108D01*
X-53547Y570223D01*
X-53570Y570385D01*
X-53663Y570756D01*
X-53733Y570941D01*
X-53802Y571103D01*
X-53825Y571126D01*
X-53848Y571172D01*
X-53895Y571265D01*
X-53987Y571380D01*
X-54172Y571612D01*
X-54450Y571843D01*
X-54473Y571866D01*
X-54519Y571889D01*
X-54612Y571936D01*
X-54728Y571982D01*
X-54889Y572051D01*
X-55075Y572098D01*
X-55260Y572144D01*
X-55491Y572167D01*
Y575476D01*
X-43042D01*
Y578577D01*
X-40404D01*
Y568627D01*
D02*
G37*
G36*
X745851Y-35587D02*
X746036D01*
X746268Y-35633D01*
X746499Y-35679D01*
X746754Y-35726D01*
X746985Y-35818D01*
X747008D01*
X747101Y-35864D01*
X747216Y-35934D01*
X747355Y-36003D01*
X747517Y-36119D01*
X747702Y-36258D01*
X747887Y-36397D01*
X748049Y-36582D01*
X748073Y-36605D01*
X748119Y-36674D01*
X748212Y-36790D01*
X748304Y-36952D01*
X748420Y-37137D01*
X748535Y-37368D01*
X748651Y-37623D01*
X748744Y-37901D01*
X748767Y-37924D01*
X748790Y-38040D01*
X748836Y-38201D01*
X748883Y-38410D01*
X748929Y-38710D01*
X748952Y-39035D01*
X748998Y-39405D01*
Y-39844D01*
Y-47226D01*
X745458D01*
Y-41557D01*
Y-41510D01*
Y-41418D01*
Y-41256D01*
Y-41071D01*
Y-40839D01*
X745435Y-40608D01*
Y-40377D01*
X745412Y-40145D01*
Y-40122D01*
Y-40053D01*
X745388Y-39937D01*
Y-39821D01*
X745319Y-39520D01*
X745227Y-39220D01*
Y-39196D01*
X745203Y-39150D01*
X745111Y-39011D01*
X744972Y-38849D01*
X744764Y-38687D01*
X744741D01*
X744694Y-38664D01*
X744625Y-38618D01*
X744532Y-38595D01*
X744393Y-38549D01*
X744255Y-38525D01*
X744070Y-38502D01*
X743722D01*
X743607Y-38525D01*
X743375Y-38572D01*
X743074Y-38687D01*
X743051D01*
X743005Y-38710D01*
X742936Y-38757D01*
X742820Y-38826D01*
X742542Y-38988D01*
X742218Y-39196D01*
Y-47226D01*
X738678D01*
Y-41557D01*
Y-41510D01*
Y-41418D01*
Y-41279D01*
Y-41071D01*
Y-40862D01*
X738655Y-40631D01*
X738632Y-40168D01*
Y-40145D01*
Y-40076D01*
X738609Y-39960D01*
X738586Y-39821D01*
X738539Y-39520D01*
X738493Y-39358D01*
X738447Y-39220D01*
Y-39196D01*
X738423Y-39150D01*
X738331Y-39011D01*
X738169Y-38849D01*
X737961Y-38687D01*
X737938D01*
X737914Y-38664D01*
X737845Y-38618D01*
X737729Y-38595D01*
X737614Y-38549D01*
X737475Y-38525D01*
X737290Y-38502D01*
X736919D01*
X736804Y-38525D01*
X736526Y-38595D01*
X736225Y-38710D01*
X736202D01*
X736156Y-38757D01*
X736086Y-38780D01*
X735971Y-38849D01*
X735739Y-39011D01*
X735439Y-39196D01*
Y-47226D01*
X731898D01*
Y-35864D01*
X735439D01*
Y-37137D01*
X735485Y-37114D01*
X735577Y-37021D01*
X735739Y-36883D01*
X735971Y-36720D01*
X736202Y-36535D01*
X736480Y-36327D01*
X736781Y-36142D01*
X737058Y-35980D01*
X737104Y-35957D01*
X737197Y-35911D01*
X737359Y-35841D01*
X737567Y-35772D01*
X737822Y-35702D01*
X738123Y-35633D01*
X738447Y-35587D01*
X738794Y-35564D01*
X738979D01*
X739164Y-35587D01*
X739418Y-35633D01*
X739696Y-35679D01*
X739997Y-35772D01*
X740321Y-35911D01*
X740622Y-36073D01*
X740668Y-36096D01*
X740761Y-36165D01*
X740899Y-36281D01*
X741061Y-36443D01*
X741270Y-36651D01*
X741455Y-36906D01*
X741663Y-37206D01*
X741825Y-37554D01*
X741848D01*
X741871Y-37507D01*
X742010Y-37392D01*
X742195Y-37230D01*
X742450Y-37021D01*
X742751Y-36790D01*
X743074Y-36535D01*
X743399Y-36304D01*
X743746Y-36096D01*
X743792Y-36073D01*
X743907Y-36003D01*
X744070Y-35934D01*
X744324Y-35818D01*
X744579Y-35726D01*
X744902Y-35656D01*
X745227Y-35587D01*
X745574Y-35564D01*
X745712D01*
X745851Y-35587D01*
D02*
G37*
G36*
X726113D02*
X726298D01*
X726530Y-35633D01*
X726761Y-35679D01*
X727016Y-35726D01*
X727247Y-35818D01*
X727270D01*
X727363Y-35864D01*
X727479Y-35934D01*
X727617Y-36003D01*
X727779Y-36119D01*
X727964Y-36258D01*
X728150Y-36397D01*
X728312Y-36582D01*
X728335Y-36605D01*
X728381Y-36674D01*
X728474Y-36790D01*
X728566Y-36952D01*
X728682Y-37137D01*
X728798Y-37368D01*
X728913Y-37623D01*
X729006Y-37901D01*
X729029Y-37924D01*
X729052Y-38040D01*
X729098Y-38201D01*
X729145Y-38410D01*
X729191Y-38710D01*
X729214Y-39035D01*
X729260Y-39405D01*
Y-39844D01*
Y-47226D01*
X725720D01*
Y-41557D01*
Y-41510D01*
Y-41418D01*
Y-41256D01*
Y-41071D01*
Y-40839D01*
X725697Y-40608D01*
Y-40377D01*
X725674Y-40145D01*
Y-40122D01*
Y-40053D01*
X725650Y-39937D01*
Y-39821D01*
X725581Y-39520D01*
X725489Y-39220D01*
Y-39196D01*
X725465Y-39150D01*
X725373Y-39011D01*
X725234Y-38849D01*
X725026Y-38687D01*
X725003D01*
X724956Y-38664D01*
X724887Y-38618D01*
X724794Y-38595D01*
X724656Y-38549D01*
X724517Y-38525D01*
X724332Y-38502D01*
X723985D01*
X723869Y-38525D01*
X723637Y-38572D01*
X723337Y-38687D01*
X723314D01*
X723267Y-38710D01*
X723198Y-38757D01*
X723082Y-38826D01*
X722804Y-38988D01*
X722480Y-39196D01*
Y-47226D01*
X718940D01*
Y-41557D01*
Y-41510D01*
Y-41418D01*
Y-41279D01*
Y-41071D01*
Y-40862D01*
X718917Y-40631D01*
X718894Y-40168D01*
Y-40145D01*
Y-40076D01*
X718871Y-39960D01*
X718848Y-39821D01*
X718801Y-39520D01*
X718755Y-39358D01*
X718709Y-39220D01*
Y-39196D01*
X718686Y-39150D01*
X718593Y-39011D01*
X718431Y-38849D01*
X718223Y-38687D01*
X718200D01*
X718176Y-38664D01*
X718107Y-38618D01*
X717991Y-38595D01*
X717876Y-38549D01*
X717737Y-38525D01*
X717552Y-38502D01*
X717181D01*
X717066Y-38525D01*
X716788Y-38595D01*
X716487Y-38710D01*
X716464D01*
X716418Y-38757D01*
X716348Y-38780D01*
X716233Y-38849D01*
X716001Y-39011D01*
X715701Y-39196D01*
Y-47226D01*
X712160D01*
Y-35864D01*
X715701D01*
Y-37137D01*
X715747Y-37114D01*
X715839Y-37021D01*
X716001Y-36883D01*
X716233Y-36720D01*
X716464Y-36535D01*
X716742Y-36327D01*
X717043Y-36142D01*
X717320Y-35980D01*
X717367Y-35957D01*
X717459Y-35911D01*
X717621Y-35841D01*
X717829Y-35772D01*
X718084Y-35702D01*
X718385Y-35633D01*
X718709Y-35587D01*
X719056Y-35564D01*
X719241D01*
X719426Y-35587D01*
X719681Y-35633D01*
X719958Y-35679D01*
X720259Y-35772D01*
X720583Y-35911D01*
X720884Y-36073D01*
X720930Y-36096D01*
X721023Y-36165D01*
X721161Y-36281D01*
X721323Y-36443D01*
X721532Y-36651D01*
X721717Y-36906D01*
X721925Y-37206D01*
X722087Y-37554D01*
X722110D01*
X722133Y-37507D01*
X722272Y-37392D01*
X722457Y-37230D01*
X722712Y-37021D01*
X723013Y-36790D01*
X723337Y-36535D01*
X723661Y-36304D01*
X724008Y-36096D01*
X724054Y-36073D01*
X724170Y-36003D01*
X724332Y-35934D01*
X724586Y-35818D01*
X724841Y-35726D01*
X725165Y-35656D01*
X725489Y-35587D01*
X725836Y-35564D01*
X725975D01*
X726113Y-35587D01*
D02*
G37*
G36*
X709453Y-35008D02*
X703043D01*
Y-37530D01*
X703159D01*
X703252Y-37507D01*
X703483D01*
X703761Y-37484D01*
X703900D01*
X703992Y-37461D01*
X704802D01*
X705080Y-37484D01*
X705380Y-37507D01*
X705727Y-37554D01*
X706422Y-37692D01*
X706468D01*
X706584Y-37739D01*
X706746Y-37785D01*
X706977Y-37854D01*
X707232Y-37947D01*
X707486Y-38063D01*
X707764Y-38201D01*
X708042Y-38363D01*
X708088Y-38387D01*
X708180Y-38456D01*
X708342Y-38595D01*
X708527Y-38757D01*
X708736Y-38965D01*
X708967Y-39243D01*
X709198Y-39520D01*
X709383Y-39867D01*
X709407Y-39914D01*
X709453Y-40030D01*
X709546Y-40238D01*
X709638Y-40492D01*
X709707Y-40816D01*
X709800Y-41210D01*
X709846Y-41649D01*
X709870Y-42135D01*
Y-42158D01*
Y-42181D01*
Y-42251D01*
Y-42343D01*
X709846Y-42552D01*
X709823Y-42853D01*
X709777Y-43200D01*
X709684Y-43570D01*
X709592Y-43940D01*
X709453Y-44333D01*
X709430Y-44380D01*
X709383Y-44495D01*
X709291Y-44681D01*
X709152Y-44912D01*
X708990Y-45189D01*
X708782Y-45467D01*
X708527Y-45768D01*
X708250Y-46046D01*
X708203Y-46069D01*
X708111Y-46161D01*
X707949Y-46300D01*
X707718Y-46462D01*
X707440Y-46624D01*
X707139Y-46809D01*
X706769Y-46994D01*
X706375Y-47156D01*
X706352D01*
X706329Y-47179D01*
X706260Y-47203D01*
X706190Y-47226D01*
X705959Y-47272D01*
X705635Y-47341D01*
X705242Y-47434D01*
X704802Y-47480D01*
X704270Y-47527D01*
X703714Y-47550D01*
X703437D01*
X703298Y-47527D01*
X703113D01*
X702719Y-47503D01*
X702257Y-47457D01*
X701794Y-47411D01*
X701285Y-47341D01*
X700822Y-47249D01*
X700799D01*
X700776Y-47226D01*
X700706D01*
X700614Y-47203D01*
X700406Y-47156D01*
X700128Y-47087D01*
X699804Y-46994D01*
X699480Y-46879D01*
X699133Y-46763D01*
X698832Y-46647D01*
Y-43362D01*
X699179D01*
X699202Y-43385D01*
X699341Y-43477D01*
X699549Y-43616D01*
X699804Y-43755D01*
X699827D01*
X699873Y-43778D01*
X699943Y-43824D01*
X700058Y-43871D01*
X700174Y-43940D01*
X700336Y-44009D01*
X700521Y-44079D01*
X700729Y-44171D01*
X700752D01*
X700822Y-44195D01*
X700938Y-44241D01*
X701077Y-44287D01*
X701238Y-44356D01*
X701424Y-44403D01*
X701817Y-44518D01*
X701840D01*
X701909Y-44542D01*
X702025Y-44565D01*
X702187Y-44588D01*
X702372Y-44611D01*
X702581Y-44634D01*
X703043Y-44657D01*
X703275D01*
X703437Y-44634D01*
X703622D01*
X703830Y-44588D01*
X704316Y-44518D01*
X704339D01*
X704432Y-44495D01*
X704547Y-44449D01*
X704709Y-44403D01*
X705080Y-44241D01*
X705242Y-44125D01*
X705404Y-43986D01*
X705427Y-43963D01*
X705450Y-43940D01*
X705589Y-43778D01*
X705751Y-43570D01*
X705890Y-43315D01*
Y-43292D01*
X705913Y-43246D01*
X705959Y-43153D01*
X705982Y-43038D01*
X706028Y-42899D01*
X706051Y-42714D01*
X706075Y-42505D01*
Y-42274D01*
Y-42251D01*
Y-42181D01*
Y-42089D01*
X706051Y-41950D01*
X705982Y-41672D01*
X705843Y-41371D01*
Y-41348D01*
X705797Y-41302D01*
X705751Y-41233D01*
X705704Y-41140D01*
X705519Y-40932D01*
X705265Y-40747D01*
X705242Y-40724D01*
X705172Y-40700D01*
X705057Y-40631D01*
X704918Y-40562D01*
X704733Y-40492D01*
X704524Y-40423D01*
X704293Y-40353D01*
X704015Y-40307D01*
X703992D01*
X703900Y-40284D01*
X703761Y-40261D01*
X703599Y-40238D01*
X703390D01*
X703182Y-40215D01*
X702766Y-40191D01*
X702465D01*
X702257Y-40215D01*
X702002D01*
X701724Y-40238D01*
X701146Y-40330D01*
X701123D01*
X701007Y-40353D01*
X700868Y-40377D01*
X700683Y-40423D01*
X700475Y-40469D01*
X700244Y-40515D01*
X699804Y-40608D01*
X699480D01*
Y-32162D01*
X709453D01*
Y-35008D01*
D02*
G37*
G36*
X658338Y-31861D02*
X658639D01*
X659009Y-31907D01*
X659402Y-31954D01*
X659796Y-32000D01*
X660166Y-32093D01*
X660212D01*
X660328Y-32139D01*
X660513Y-32185D01*
X660744Y-32255D01*
X661022Y-32347D01*
X661300Y-32463D01*
X661578Y-32602D01*
X661855Y-32764D01*
X661878Y-32787D01*
X661971Y-32856D01*
X662110Y-32949D01*
X662295Y-33088D01*
X662480Y-33250D01*
X662665Y-33458D01*
X662850Y-33712D01*
X663012Y-33967D01*
X663035Y-33990D01*
X663082Y-34106D01*
X663128Y-34245D01*
X663220Y-34453D01*
X663290Y-34707D01*
X663336Y-34985D01*
X663382Y-35286D01*
X663406Y-35633D01*
Y-35656D01*
Y-35679D01*
Y-35749D01*
Y-35841D01*
X663359Y-36096D01*
X663313Y-36397D01*
X663220Y-36744D01*
X663082Y-37114D01*
X662896Y-37507D01*
X662642Y-37878D01*
X662619Y-37924D01*
X662503Y-38040D01*
X662341Y-38201D01*
X662133Y-38387D01*
X661832Y-38618D01*
X661508Y-38803D01*
X661138Y-38988D01*
X660698Y-39127D01*
Y-39266D01*
X660721D01*
X660791Y-39289D01*
X660883Y-39312D01*
X661022Y-39335D01*
X661184Y-39382D01*
X661369Y-39428D01*
X661740Y-39543D01*
X661763D01*
X661832Y-39590D01*
X661925Y-39636D01*
X662064Y-39682D01*
X662364Y-39891D01*
X662549Y-40006D01*
X662735Y-40168D01*
X662758Y-40191D01*
X662804Y-40238D01*
X662896Y-40330D01*
X663012Y-40446D01*
X663128Y-40585D01*
X663244Y-40770D01*
X663382Y-40955D01*
X663498Y-41186D01*
X663521Y-41210D01*
X663544Y-41302D01*
X663591Y-41418D01*
X663660Y-41603D01*
X663706Y-41811D01*
X663753Y-42066D01*
X663776Y-42366D01*
X663799Y-42667D01*
Y-42691D01*
Y-42714D01*
Y-42853D01*
X663776Y-43061D01*
X663753Y-43338D01*
X663706Y-43662D01*
X663614Y-43986D01*
X663521Y-44356D01*
X663382Y-44704D01*
X663359Y-44750D01*
X663313Y-44843D01*
X663220Y-45028D01*
X663082Y-45236D01*
X662896Y-45467D01*
X662711Y-45745D01*
X662457Y-45999D01*
X662179Y-46254D01*
X662133Y-46277D01*
X662040Y-46347D01*
X661855Y-46462D01*
X661647Y-46601D01*
X661369Y-46763D01*
X661045Y-46925D01*
X660675Y-47087D01*
X660282Y-47226D01*
X660259D01*
X660236Y-47249D01*
X660166D01*
X660097Y-47272D01*
X659865Y-47318D01*
X659564Y-47388D01*
X659171Y-47457D01*
X658731Y-47503D01*
X658222Y-47527D01*
X657667Y-47550D01*
X657227D01*
X657042Y-47527D01*
X656626Y-47503D01*
X656163Y-47480D01*
X655654Y-47411D01*
X655145Y-47341D01*
X654659Y-47249D01*
X654636D01*
X654613Y-47226D01*
X654543D01*
X654451Y-47203D01*
X654219Y-47133D01*
X653941Y-47064D01*
X653618Y-46971D01*
X653270Y-46856D01*
X652946Y-46740D01*
X652623Y-46601D01*
Y-43338D01*
X652970D01*
X653016Y-43362D01*
X653109Y-43431D01*
X653294Y-43524D01*
X653525Y-43662D01*
X653803Y-43824D01*
X654150Y-43963D01*
X654520Y-44125D01*
X654913Y-44287D01*
X654937D01*
X654960Y-44310D01*
X655098Y-44333D01*
X655330Y-44403D01*
X655608Y-44472D01*
X655908Y-44542D01*
X656255Y-44588D01*
X656626Y-44634D01*
X656973Y-44657D01*
X657181D01*
X657320Y-44634D01*
X657505D01*
X657690Y-44611D01*
X658153Y-44565D01*
X658176D01*
X658269Y-44542D01*
X658384Y-44518D01*
X658523Y-44472D01*
X658893Y-44356D01*
X659240Y-44148D01*
X659264Y-44125D01*
X659310Y-44102D01*
X659449Y-43963D01*
X659611Y-43778D01*
X659796Y-43524D01*
Y-43500D01*
X659819Y-43454D01*
X659865Y-43362D01*
X659911Y-43246D01*
X659935Y-43084D01*
X659981Y-42899D01*
X660004Y-42691D01*
Y-42459D01*
Y-42436D01*
Y-42343D01*
X659981Y-42228D01*
X659958Y-42066D01*
X659888Y-41719D01*
X659796Y-41557D01*
X659703Y-41418D01*
X659680Y-41395D01*
X659657Y-41348D01*
X659588Y-41302D01*
X659495Y-41210D01*
X659240Y-41048D01*
X658916Y-40886D01*
X658893D01*
X658824Y-40862D01*
X658731Y-40816D01*
X658593Y-40793D01*
X658431Y-40747D01*
X658222Y-40724D01*
X658014Y-40700D01*
X657759Y-40677D01*
X657528D01*
X657366Y-40654D01*
X655931D01*
Y-38016D01*
X656926D01*
X657112Y-37993D01*
X657320D01*
X657759Y-37970D01*
X657783D01*
X657852Y-37947D01*
X657968D01*
X658107Y-37901D01*
X658431Y-37831D01*
X658755Y-37715D01*
X658778D01*
X658824Y-37669D01*
X658893Y-37646D01*
X658986Y-37577D01*
X659194Y-37415D01*
X659379Y-37183D01*
Y-37160D01*
X659426Y-37114D01*
X659449Y-37044D01*
X659495Y-36929D01*
X659541Y-36813D01*
X659564Y-36651D01*
X659611Y-36466D01*
Y-36258D01*
Y-36235D01*
Y-36188D01*
Y-36096D01*
X659588Y-35980D01*
X659518Y-35749D01*
X659379Y-35517D01*
Y-35494D01*
X659333Y-35471D01*
X659240Y-35355D01*
X659079Y-35193D01*
X658870Y-35055D01*
X658847D01*
X658801Y-35031D01*
X658731Y-34985D01*
X658616Y-34962D01*
X658361Y-34869D01*
X658014Y-34800D01*
X657991D01*
X657945Y-34777D01*
X657852D01*
X657736Y-34754D01*
X657459Y-34731D01*
X656973D01*
X656834Y-34754D01*
X656672D01*
X656464Y-34777D01*
X656047Y-34869D01*
X656024D01*
X655955Y-34892D01*
X655839Y-34916D01*
X655700Y-34962D01*
X655538Y-35008D01*
X655353Y-35078D01*
X654937Y-35217D01*
X654913D01*
X654867Y-35240D01*
X654775Y-35286D01*
X654682Y-35332D01*
X654381Y-35471D01*
X654057Y-35633D01*
X654034D01*
X653988Y-35679D01*
X653895Y-35726D01*
X653803Y-35772D01*
X653571Y-35887D01*
X653363Y-36003D01*
X653062D01*
Y-32787D01*
X653109Y-32764D01*
X653201Y-32740D01*
X653363Y-32671D01*
X653618Y-32579D01*
X653918Y-32486D01*
X654266Y-32394D01*
X654682Y-32278D01*
X655145Y-32162D01*
X655168D01*
X655214Y-32139D01*
X655284D01*
X655376Y-32116D01*
X655492Y-32093D01*
X655631Y-32069D01*
X655978Y-32000D01*
X656394Y-31931D01*
X656834Y-31884D01*
X657343Y-31861D01*
X657852Y-31838D01*
X658083D01*
X658338Y-31861D01*
D02*
G37*
G36*
X671597D02*
X671921Y-31884D01*
X672291Y-31931D01*
X672684Y-32000D01*
X673078Y-32093D01*
X673471Y-32208D01*
X673494D01*
X673518Y-32232D01*
X673633Y-32278D01*
X673841Y-32370D01*
X674073Y-32486D01*
X674351Y-32648D01*
X674651Y-32833D01*
X674952Y-33064D01*
X675230Y-33342D01*
X675276Y-33389D01*
X675369Y-33504D01*
X675531Y-33689D01*
X675716Y-33944D01*
X675924Y-34268D01*
X676132Y-34661D01*
X676340Y-35101D01*
X676526Y-35587D01*
Y-35610D01*
X676549Y-35656D01*
X676572Y-35726D01*
X676595Y-35818D01*
X676618Y-35957D01*
X676664Y-36119D01*
X676711Y-36304D01*
X676757Y-36489D01*
X676826Y-36975D01*
X676896Y-37530D01*
X676942Y-38155D01*
X676965Y-38849D01*
Y-38872D01*
Y-38942D01*
Y-39035D01*
Y-39173D01*
X676942Y-39335D01*
Y-39543D01*
X676919Y-39775D01*
Y-40006D01*
X676850Y-40562D01*
X676780Y-41163D01*
X676664Y-41765D01*
X676503Y-42390D01*
Y-42413D01*
X676479Y-42459D01*
X676456Y-42552D01*
X676410Y-42667D01*
X676364Y-42783D01*
X676317Y-42945D01*
X676155Y-43338D01*
X675970Y-43755D01*
X675739Y-44218D01*
X675438Y-44681D01*
X675114Y-45120D01*
Y-45143D01*
X675068Y-45166D01*
X674952Y-45305D01*
X674721Y-45537D01*
X674443Y-45791D01*
X674096Y-46069D01*
X673680Y-46370D01*
X673217Y-46670D01*
X672708Y-46925D01*
X672684D01*
X672638Y-46948D01*
X672569Y-46971D01*
X672453Y-47018D01*
X672314Y-47064D01*
X672152Y-47110D01*
X671944Y-47179D01*
X671736Y-47226D01*
X671481Y-47272D01*
X671204Y-47341D01*
X670602Y-47434D01*
X669931Y-47503D01*
X669167Y-47527D01*
X668913D01*
X668728Y-47503D01*
X668496D01*
X668242Y-47480D01*
X667686Y-47434D01*
X667663D01*
X667571Y-47411D01*
X667432D01*
X667270Y-47388D01*
X666946Y-47318D01*
X666807Y-47295D01*
X666691Y-47272D01*
Y-44310D01*
X666992D01*
X667015Y-44333D01*
X667085Y-44380D01*
X667177Y-44403D01*
X667293Y-44449D01*
X667409Y-44518D01*
X667756Y-44634D01*
X667779D01*
X667848Y-44657D01*
X667964Y-44681D01*
X668149Y-44704D01*
X668357Y-44727D01*
X668589Y-44750D01*
X668890Y-44773D01*
X669491D01*
X669676Y-44750D01*
X669885Y-44727D01*
X670116Y-44704D01*
X670625Y-44588D01*
X670648D01*
X670741Y-44542D01*
X670880Y-44495D01*
X671042Y-44426D01*
X671227Y-44333D01*
X671435Y-44241D01*
X671828Y-43963D01*
X671851Y-43940D01*
X671921Y-43894D01*
X672013Y-43778D01*
X672129Y-43662D01*
X672268Y-43500D01*
X672407Y-43315D01*
X672546Y-43084D01*
X672684Y-42853D01*
X672708Y-42829D01*
X672731Y-42737D01*
X672800Y-42575D01*
X672870Y-42390D01*
X672962Y-42135D01*
X673031Y-41858D01*
X673101Y-41533D01*
X673147Y-41163D01*
X673101Y-41186D01*
X673008Y-41256D01*
X672846Y-41348D01*
X672661Y-41441D01*
X672430Y-41580D01*
X672175Y-41719D01*
X671643Y-41950D01*
X671620D01*
X671527Y-41996D01*
X671366Y-42019D01*
X671180Y-42066D01*
X670926Y-42112D01*
X670625Y-42158D01*
X670301Y-42181D01*
X669931Y-42205D01*
X669653D01*
X669445Y-42181D01*
X669213Y-42158D01*
X668959Y-42135D01*
X668427Y-42019D01*
X668404D01*
X668311Y-41973D01*
X668172Y-41927D01*
X668010Y-41858D01*
X667802Y-41765D01*
X667594Y-41649D01*
X667131Y-41371D01*
X667108Y-41348D01*
X667015Y-41256D01*
X666877Y-41117D01*
X666691Y-40932D01*
X666506Y-40724D01*
X666298Y-40446D01*
X666090Y-40145D01*
X665905Y-39798D01*
X665882Y-39752D01*
X665835Y-39636D01*
X665766Y-39428D01*
X665696Y-39127D01*
X665604Y-38780D01*
X665534Y-38363D01*
X665488Y-37878D01*
X665465Y-37322D01*
Y-37299D01*
Y-37276D01*
Y-37206D01*
Y-37114D01*
X665488Y-36906D01*
X665511Y-36605D01*
X665557Y-36281D01*
X665627Y-35911D01*
X665720Y-35517D01*
X665858Y-35147D01*
Y-35124D01*
X665882Y-35101D01*
X665928Y-34985D01*
X666020Y-34800D01*
X666159Y-34545D01*
X666298Y-34291D01*
X666506Y-33990D01*
X666738Y-33689D01*
X666992Y-33412D01*
X667015Y-33389D01*
X667131Y-33296D01*
X667270Y-33157D01*
X667478Y-32995D01*
X667733Y-32810D01*
X668057Y-32602D01*
X668404Y-32417D01*
X668774Y-32255D01*
X668797D01*
X668820Y-32232D01*
X668959Y-32185D01*
X669190Y-32116D01*
X669468Y-32046D01*
X669815Y-31977D01*
X670209Y-31907D01*
X670671Y-31861D01*
X671134Y-31838D01*
X671366D01*
X671597Y-31861D01*
D02*
G37*
G36*
X683005Y-47226D02*
X679418D01*
Y-43246D01*
X683005D01*
Y-47226D01*
D02*
G37*
G36*
X647231Y-44588D02*
X650332D01*
Y-47226D01*
X640382D01*
Y-44588D01*
X643552D01*
Y-36651D01*
X640382D01*
Y-34198D01*
X640822D01*
X641030Y-34175D01*
X641261D01*
X641747Y-34129D01*
X641770D01*
X641863Y-34106D01*
X641979Y-34083D01*
X642140Y-34060D01*
X642511Y-33967D01*
X642696Y-33898D01*
X642858Y-33828D01*
X642881Y-33805D01*
X642927Y-33782D01*
X643020Y-33735D01*
X643135Y-33643D01*
X643367Y-33458D01*
X643598Y-33180D01*
X643621Y-33157D01*
X643644Y-33111D01*
X643691Y-33018D01*
X643737Y-32903D01*
X643807Y-32740D01*
X643853Y-32555D01*
X643899Y-32370D01*
X643922Y-32139D01*
X647231D01*
Y-44588D01*
D02*
G37*
G36*
X695176Y-41001D02*
X697212D01*
Y-43709D01*
X695176D01*
Y-47272D01*
X691497D01*
Y-43709D01*
X684902D01*
Y-40909D01*
X691358Y-32162D01*
X695176D01*
Y-41001D01*
D02*
G37*
%LPC*%
G36*
X-15822Y109676D02*
X-16123D01*
X-16146D01*
X-16239D01*
X-16377D01*
X-16539Y109652D01*
X-16933Y109606D01*
X-17118Y109560D01*
X-17303Y109490D01*
X-17326D01*
X-17395Y109467D01*
X-17465Y109421D01*
X-17581Y109352D01*
X-17835Y109190D01*
X-18067Y108958D01*
X-18090Y108935D01*
X-18113Y108912D01*
X-18159Y108843D01*
X-18229Y108750D01*
X-18344Y108519D01*
X-18460Y108218D01*
Y108195D01*
X-18483Y108148D01*
X-18506Y108056D01*
X-18529Y107940D01*
X-18553Y107662D01*
X-18576Y107315D01*
Y107177D01*
X-18553Y107061D01*
X-18529Y106806D01*
X-18460Y106505D01*
Y106482D01*
X-18437Y106436D01*
X-18414Y106343D01*
X-18391Y106251D01*
X-18321Y105996D01*
X-18205Y105719D01*
X-18182D01*
X-18136D01*
X-18020D01*
X-17881D01*
X-17835D01*
X-17720D01*
X-17534D01*
X-17303D01*
X-17280D01*
X-17257D01*
X-17187D01*
X-17095D01*
X-16863Y105742D01*
X-16562D01*
X-16215Y105765D01*
X-15868Y105811D01*
X-15544Y105858D01*
X-15220Y105927D01*
X-15197D01*
X-15082Y105973D01*
X-14943Y106019D01*
X-14781Y106089D01*
X-14387Y106274D01*
X-14202Y106390D01*
X-14040Y106505D01*
X-14017Y106529D01*
X-13994Y106552D01*
X-13855Y106667D01*
X-13716Y106853D01*
X-13578Y107084D01*
Y107107D01*
X-13554Y107153D01*
X-13531Y107223D01*
X-13508Y107315D01*
X-13462Y107524D01*
X-13439Y107801D01*
Y107917D01*
X-13462Y108010D01*
X-13508Y108218D01*
X-13578Y108472D01*
Y108496D01*
X-13601Y108542D01*
X-13693Y108681D01*
X-13832Y108866D01*
X-14040Y109051D01*
X-14064Y109074D01*
X-14110Y109097D01*
X-14179Y109166D01*
X-14272Y109213D01*
X-14503Y109375D01*
X-14804Y109514D01*
X-14827D01*
X-14897Y109537D01*
X-14989Y109560D01*
X-15128Y109606D01*
X-15313Y109629D01*
X-15544Y109652D01*
X-15822Y109676D01*
D02*
G37*
G36*
X-18205Y96394D02*
X-18714D01*
X-18738D01*
X-18830D01*
X-18992D01*
X-19177D01*
X-19409Y96370D01*
X-19663D01*
X-19964Y96347D01*
X-20265D01*
X-20913Y96278D01*
X-21584Y96208D01*
X-21885Y96139D01*
X-22185Y96093D01*
X-22440Y96023D01*
X-22671Y95931D01*
X-22694D01*
X-22718Y95908D01*
X-22856Y95838D01*
X-23042Y95723D01*
X-23250Y95561D01*
X-23458Y95352D01*
X-23620Y95075D01*
X-23759Y94751D01*
X-23782Y94589D01*
X-23805Y94380D01*
Y94334D01*
X-23782Y94195D01*
X-23736Y94010D01*
X-23666Y93779D01*
X-23528Y93524D01*
X-23319Y93270D01*
X-23203Y93154D01*
X-23042Y93038D01*
X-22880Y92923D01*
X-22671Y92830D01*
X-22648D01*
X-22625Y92807D01*
X-22556Y92784D01*
X-22440Y92761D01*
X-22324Y92714D01*
X-22162Y92691D01*
X-21977Y92645D01*
X-21746Y92599D01*
X-21491Y92552D01*
X-21214Y92506D01*
X-20890Y92483D01*
X-20519Y92437D01*
X-20126Y92414D01*
X-19686Y92390D01*
X-19224Y92367D01*
X-18714D01*
X-18691D01*
X-18599D01*
X-18460D01*
X-18275D01*
X-18043Y92390D01*
X-17766D01*
X-17488Y92414D01*
X-17187Y92437D01*
X-16539Y92483D01*
X-15891Y92552D01*
X-15568Y92622D01*
X-15290Y92668D01*
X-15012Y92761D01*
X-14781Y92830D01*
X-14758D01*
X-14734Y92853D01*
X-14596Y92923D01*
X-14434Y93038D01*
X-14225Y93200D01*
X-14017Y93409D01*
X-13832Y93686D01*
X-13693Y94010D01*
X-13670Y94195D01*
X-13647Y94380D01*
Y94427D01*
X-13670Y94565D01*
X-13716Y94751D01*
X-13786Y94982D01*
X-13925Y95213D01*
X-14133Y95468D01*
X-14249Y95607D01*
X-14411Y95699D01*
X-14572Y95815D01*
X-14781Y95908D01*
X-14804D01*
X-14827Y95931D01*
X-14897Y95954D01*
X-15012Y95977D01*
X-15128Y96023D01*
X-15290Y96070D01*
X-15475Y96116D01*
X-15706Y96162D01*
X-15961Y96185D01*
X-16262Y96232D01*
X-16562Y96278D01*
X-16933Y96324D01*
X-17326Y96347D01*
X-17743Y96370D01*
X-18205Y96394D01*
D02*
G37*
G36*
X-17419Y75175D02*
X-22509D01*
X-17419Y71380D01*
Y75175D01*
D02*
G37*
G36*
X81915Y-16984D02*
X81777D01*
X81661Y-17007D01*
X81406Y-17031D01*
X81105Y-17100D01*
X81082D01*
X81036Y-17123D01*
X80943Y-17146D01*
X80851Y-17170D01*
X80596Y-17239D01*
X80319Y-17355D01*
Y-17378D01*
Y-17424D01*
Y-17540D01*
Y-17679D01*
Y-17725D01*
Y-17840D01*
Y-18026D01*
Y-18257D01*
Y-18280D01*
Y-18303D01*
Y-18373D01*
Y-18465D01*
X80342Y-18697D01*
Y-18997D01*
X80365Y-19345D01*
X80411Y-19692D01*
X80458Y-20016D01*
X80527Y-20340D01*
Y-20363D01*
X80573Y-20478D01*
X80619Y-20617D01*
X80689Y-20779D01*
X80874Y-21173D01*
X80990Y-21358D01*
X81105Y-21520D01*
X81129Y-21543D01*
X81152Y-21566D01*
X81267Y-21705D01*
X81453Y-21844D01*
X81684Y-21983D01*
X81707D01*
X81753Y-22006D01*
X81823Y-22029D01*
X81915Y-22052D01*
X82124Y-22098D01*
X82401Y-22121D01*
X82517D01*
X82610Y-22098D01*
X82818Y-22052D01*
X83072Y-21983D01*
X83096D01*
X83142Y-21959D01*
X83281Y-21867D01*
X83466Y-21728D01*
X83651Y-21520D01*
X83674Y-21497D01*
X83697Y-21450D01*
X83766Y-21381D01*
X83813Y-21288D01*
X83975Y-21057D01*
X84114Y-20756D01*
Y-20733D01*
X84137Y-20663D01*
X84160Y-20571D01*
X84206Y-20432D01*
X84229Y-20247D01*
X84252Y-20016D01*
X84276Y-19738D01*
Y-19437D01*
Y-19414D01*
Y-19321D01*
Y-19183D01*
X84252Y-19021D01*
X84206Y-18627D01*
X84160Y-18442D01*
X84090Y-18257D01*
Y-18234D01*
X84067Y-18164D01*
X84021Y-18095D01*
X83952Y-17979D01*
X83790Y-17725D01*
X83558Y-17493D01*
X83535Y-17470D01*
X83512Y-17447D01*
X83443Y-17401D01*
X83350Y-17331D01*
X83119Y-17216D01*
X82818Y-17100D01*
X82795D01*
X82748Y-17077D01*
X82656Y-17054D01*
X82540Y-17031D01*
X82262Y-17007D01*
X81915Y-16984D01*
D02*
G37*
G36*
X49775Y-13051D02*
X45980Y-18141D01*
X49775D01*
Y-13051D01*
D02*
G37*
G36*
X68980Y-11755D02*
X68934D01*
X68795Y-11778D01*
X68610Y-11824D01*
X68379Y-11894D01*
X68124Y-12033D01*
X67870Y-12241D01*
X67754Y-12356D01*
X67638Y-12518D01*
X67523Y-12680D01*
X67430Y-12889D01*
Y-12912D01*
X67407Y-12935D01*
X67384Y-13004D01*
X67361Y-13120D01*
X67314Y-13236D01*
X67291Y-13398D01*
X67245Y-13583D01*
X67199Y-13814D01*
X67152Y-14069D01*
X67106Y-14346D01*
X67083Y-14670D01*
X67037Y-15041D01*
X67014Y-15434D01*
X66990Y-15874D01*
X66967Y-16336D01*
Y-16846D01*
Y-16869D01*
Y-16961D01*
Y-17100D01*
Y-17285D01*
X66990Y-17517D01*
Y-17794D01*
X67014Y-18072D01*
X67037Y-18373D01*
X67083Y-19021D01*
X67152Y-19669D01*
X67222Y-19993D01*
X67268Y-20270D01*
X67361Y-20548D01*
X67430Y-20779D01*
Y-20802D01*
X67453Y-20826D01*
X67523Y-20964D01*
X67638Y-21126D01*
X67800Y-21335D01*
X68009Y-21543D01*
X68286Y-21728D01*
X68610Y-21867D01*
X68795Y-21890D01*
X68980Y-21913D01*
X69027D01*
X69166Y-21890D01*
X69351Y-21844D01*
X69582Y-21774D01*
X69813Y-21635D01*
X70068Y-21427D01*
X70207Y-21311D01*
X70299Y-21149D01*
X70415Y-20988D01*
X70508Y-20779D01*
Y-20756D01*
X70531Y-20733D01*
X70554Y-20663D01*
X70577Y-20548D01*
X70623Y-20432D01*
X70670Y-20270D01*
X70716Y-20085D01*
X70762Y-19854D01*
X70785Y-19599D01*
X70832Y-19298D01*
X70878Y-18997D01*
X70924Y-18627D01*
X70947Y-18234D01*
X70970Y-17817D01*
X70994Y-17355D01*
Y-16846D01*
Y-16822D01*
Y-16730D01*
Y-16568D01*
Y-16383D01*
X70970Y-16151D01*
Y-15897D01*
X70947Y-15596D01*
Y-15295D01*
X70878Y-14647D01*
X70808Y-13976D01*
X70739Y-13675D01*
X70693Y-13375D01*
X70623Y-13120D01*
X70531Y-12889D01*
Y-12866D01*
X70508Y-12842D01*
X70438Y-12704D01*
X70322Y-12518D01*
X70160Y-12310D01*
X69952Y-12102D01*
X69675Y-11940D01*
X69351Y-11801D01*
X69189Y-11778D01*
X68980Y-11755D01*
D02*
G37*
G36*
X-47415Y634482D02*
X-47924D01*
X-47948D01*
X-48040D01*
X-48202D01*
X-48387D01*
X-48619Y634458D01*
X-48873D01*
X-49174Y634435D01*
X-49475D01*
X-50123Y634366D01*
X-50794Y634296D01*
X-51095Y634227D01*
X-51395Y634181D01*
X-51650Y634111D01*
X-51881Y634019D01*
X-51905D01*
X-51928Y633996D01*
X-52066Y633926D01*
X-52252Y633811D01*
X-52460Y633648D01*
X-52668Y633440D01*
X-52830Y633163D01*
X-52969Y632839D01*
X-52992Y632677D01*
X-53015Y632468D01*
Y632422D01*
X-52992Y632283D01*
X-52946Y632098D01*
X-52876Y631867D01*
X-52737Y631612D01*
X-52529Y631358D01*
X-52414Y631242D01*
X-52252Y631126D01*
X-52090Y631011D01*
X-51881Y630918D01*
X-51858D01*
X-51835Y630895D01*
X-51766Y630872D01*
X-51650Y630849D01*
X-51534Y630802D01*
X-51372Y630779D01*
X-51187Y630733D01*
X-50956Y630687D01*
X-50701Y630640D01*
X-50423Y630594D01*
X-50100Y630571D01*
X-49729Y630525D01*
X-49336Y630502D01*
X-48896Y630478D01*
X-48434Y630455D01*
X-47924D01*
X-47901D01*
X-47809D01*
X-47670D01*
X-47485D01*
X-47253Y630478D01*
X-46976D01*
X-46698Y630502D01*
X-46397Y630525D01*
X-45749Y630571D01*
X-45101Y630640D01*
X-44777Y630710D01*
X-44500Y630756D01*
X-44222Y630849D01*
X-43991Y630918D01*
X-43968D01*
X-43945Y630941D01*
X-43806Y631011D01*
X-43644Y631126D01*
X-43435Y631288D01*
X-43227Y631497D01*
X-43042Y631774D01*
X-42903Y632098D01*
X-42880Y632283D01*
X-42857Y632468D01*
Y632515D01*
X-42880Y632654D01*
X-42926Y632839D01*
X-42996Y633070D01*
X-43135Y633301D01*
X-43343Y633556D01*
X-43459Y633695D01*
X-43621Y633787D01*
X-43783Y633903D01*
X-43991Y633996D01*
X-44014D01*
X-44037Y634019D01*
X-44106Y634042D01*
X-44222Y634065D01*
X-44338Y634111D01*
X-44500Y634158D01*
X-44685Y634204D01*
X-44916Y634250D01*
X-45171Y634273D01*
X-45472Y634319D01*
X-45773Y634366D01*
X-46143Y634412D01*
X-46536Y634435D01*
X-46953Y634458D01*
X-47415Y634482D01*
D02*
G37*
G36*
X671134Y-34407D02*
X671018D01*
X670926Y-34430D01*
X670695Y-34453D01*
X670463Y-34545D01*
X670440D01*
X670417Y-34569D01*
X670278Y-34661D01*
X670093Y-34800D01*
X669861Y-35031D01*
Y-35055D01*
X669815Y-35078D01*
X669769Y-35147D01*
X669723Y-35240D01*
X669653Y-35355D01*
X669561Y-35517D01*
X669491Y-35679D01*
X669422Y-35887D01*
Y-35911D01*
X669399Y-35980D01*
X669376Y-36096D01*
X669352Y-36258D01*
X669306Y-36443D01*
X669283Y-36651D01*
X669260Y-37137D01*
Y-37160D01*
Y-37253D01*
Y-37392D01*
X669283Y-37554D01*
X669329Y-37947D01*
X669445Y-38340D01*
Y-38363D01*
X669468Y-38410D01*
X669514Y-38502D01*
X669584Y-38595D01*
X669723Y-38849D01*
X669931Y-39081D01*
X669954D01*
X670000Y-39127D01*
X670047Y-39173D01*
X670139Y-39243D01*
X670370Y-39358D01*
X670671Y-39474D01*
X670695D01*
X670741Y-39497D01*
X670833D01*
X670949Y-39520D01*
X671088Y-39543D01*
X671250D01*
X671597Y-39567D01*
X671759D01*
X671851Y-39543D01*
X672129Y-39520D01*
X672453Y-39451D01*
X672476D01*
X672523Y-39428D01*
X672615Y-39405D01*
X672708Y-39382D01*
X672939Y-39312D01*
X673170Y-39220D01*
Y-39196D01*
Y-39127D01*
Y-39035D01*
X673194Y-38896D01*
Y-38849D01*
X673217Y-38734D01*
Y-38549D01*
Y-38294D01*
Y-38271D01*
Y-38248D01*
Y-38178D01*
Y-38086D01*
Y-37854D01*
X673194Y-37577D01*
X673170Y-37253D01*
X673124Y-36929D01*
X673078Y-36582D01*
X673008Y-36281D01*
Y-36235D01*
X672962Y-36142D01*
X672916Y-36003D01*
X672870Y-35818D01*
X672684Y-35402D01*
X672569Y-35217D01*
X672430Y-35031D01*
X672407Y-35008D01*
X672384Y-34985D01*
X672245Y-34846D01*
X672060Y-34707D01*
X671828Y-34569D01*
X671805D01*
X671782Y-34545D01*
X671713Y-34522D01*
X671620Y-34476D01*
X671389Y-34430D01*
X671134Y-34407D01*
D02*
G37*
G36*
X691497Y-35911D02*
X687702Y-41001D01*
X691497D01*
Y-35911D01*
D02*
G37*
%LPD*%
D11*
X732790Y932180D02*
X972790D01*
X732790Y1212180D02*
X972790D01*
Y932180D02*
Y1212180D01*
X732790Y932180D02*
Y1212180D01*
X1069340Y129540D02*
Y289560D01*
Y129540D02*
Y289560D01*
X669290Y129540D02*
Y289560D01*
Y129540D02*
Y289560D01*
X1069340D01*
X669290D02*
X1069340D01*
X669290Y129540D02*
X1069340D01*
X669290D02*
X1069340D01*
X91465Y928497D02*
X291465D01*
X91465Y1178497D02*
X291465D01*
X91465Y928497D02*
Y1178497D01*
X291465Y928497D02*
Y1178497D01*
X77450Y631290D02*
Y884020D01*
X260330Y631290D02*
Y884020D01*
X77450D02*
X260330D01*
X77450Y631290D02*
X260330D01*
X-19050Y-0D02*
X-13970Y-15240D01*
X-24130D02*
X-19050Y-0D01*
X-24130Y55880D02*
X-19050Y40640D01*
X-13970Y55880D01*
X-19050Y-25400D02*
Y-0D01*
Y40640D02*
Y66040D01*
X-21590Y40640D02*
X23495D01*
X-21590Y-0D02*
X-6604D01*
X25400Y-21590D02*
X40640Y-16510D01*
X25400Y-11430D02*
X40640Y-16510D01*
X0D02*
X15240Y-11430D01*
X0Y-16510D02*
X15240Y-21590D01*
X0Y-16510D02*
X40640D01*
Y-19050D02*
Y23495D01*
X0Y-19050D02*
Y-6604D01*
X-48260Y1250950D02*
X-43180Y1235710D01*
X-53340D02*
X-48260Y1250950D01*
X-53340Y15240D02*
X-48260Y-0D01*
X-43180Y15240D01*
X-48260Y679783D02*
Y1250950D01*
Y-0D02*
Y566087D01*
X-50800Y1250950D02*
X-6604D01*
X-50800Y-0D02*
X-6604D01*
X0Y-39370D02*
X15240Y-34290D01*
X0Y-39370D02*
X15240Y-44450D01*
X1379220D02*
X1394460Y-39370D01*
X1379220Y-34290D02*
X1394460Y-39370D01*
X0D02*
X637842D01*
X751538D02*
X1394460D01*
X0Y-41910D02*
Y-6604D01*
X1394460Y-41910D02*
Y-6604D01*
M02*
