G04*
G04 #@! TF.GenerationSoftware,Altium Limited,Altium Designer,24.6.1 (21)*
G04*
G04 Layer_Color=8388736*
%FSLAX44Y44*%
%MOMM*%
G71*
G04*
G04 #@! TF.SameCoordinates,4BB363C3-779D-4DD9-87B2-7F346795113B*
G04*
G04*
G04 #@! TF.FilePolarity,Positive*
G04*
G01*
G75*
%ADD36C,0.1000*%
%ADD37C,0.0508*%
D36*
X519260Y16180D02*
X593260D01*
D37*
X543260Y12115D02*
X545001D01*
X545582Y12308D01*
X545775Y12502D01*
X545969Y12889D01*
Y13469D01*
X545775Y13856D01*
X545582Y14050D01*
X545001Y14243D01*
X543260D01*
Y10180D01*
X549780Y13276D02*
X549587Y13663D01*
X549200Y14050D01*
X548813Y14243D01*
X548039D01*
X547652Y14050D01*
X547265Y13663D01*
X547072Y13276D01*
X546878Y12695D01*
Y11728D01*
X547072Y11147D01*
X547265Y10760D01*
X547652Y10374D01*
X548039Y10180D01*
X548813D01*
X549200Y10374D01*
X549587Y10760D01*
X549780Y11147D01*
X550922Y14243D02*
Y10180D01*
Y14243D02*
X552663D01*
X553244Y14050D01*
X553437Y13856D01*
X553631Y13469D01*
Y13082D01*
X553437Y12695D01*
X553244Y12502D01*
X552663Y12308D01*
X550922D02*
X552663D01*
X553244Y12115D01*
X553437Y11921D01*
X553631Y11534D01*
Y10954D01*
X553437Y10567D01*
X553244Y10374D01*
X552663Y10180D01*
X550922D01*
X560248Y14243D02*
X557733D01*
Y10180D01*
X560248D01*
X557733Y12308D02*
X559280D01*
X563247Y14243D02*
Y10180D01*
Y12308D02*
X562860Y12695D01*
X562473Y12889D01*
X561892D01*
X561505Y12695D01*
X561118Y12308D01*
X560925Y11728D01*
Y11341D01*
X561118Y10760D01*
X561505Y10374D01*
X561892Y10180D01*
X562473D01*
X562860Y10374D01*
X563247Y10760D01*
X566652Y12889D02*
Y9793D01*
X566459Y9213D01*
X566265Y9019D01*
X565878Y8826D01*
X565298D01*
X564911Y9019D01*
X566652Y12308D02*
X566265Y12695D01*
X565878Y12889D01*
X565298D01*
X564911Y12695D01*
X564524Y12308D01*
X564330Y11728D01*
Y11341D01*
X564524Y10760D01*
X564911Y10374D01*
X565298Y10180D01*
X565878D01*
X566265Y10374D01*
X566652Y10760D01*
X567735Y11728D02*
X570057D01*
Y12115D01*
X569864Y12502D01*
X569670Y12695D01*
X569283Y12889D01*
X568703D01*
X568316Y12695D01*
X567929Y12308D01*
X567735Y11728D01*
Y11341D01*
X567929Y10760D01*
X568316Y10374D01*
X568703Y10180D01*
X569283D01*
X569670Y10374D01*
X570057Y10760D01*
M02*
